<svg width="488" height="312" viewBox="0 0 488 312" fill="none" xmlns="http://www.w3.org/2000/svg">
<g style="mix-blend-mode:screen">
<path d="M128.339 160.51L75.8393 141.672C75.7161 141.622 75.6422 141.499 75.6668 141.376C75.6915 141.252 75.79 141.166 75.9256 141.166L167.274 142.746C167.397 142.746 167.495 142.832 167.52 142.956C167.545 143.079 167.483 143.203 167.372 143.252L128.512 160.51C128.512 160.51 128.45 160.535 128.425 160.535C128.388 160.535 128.352 160.535 128.315 160.523L128.339 160.51ZM77.515 141.709L128.413 159.98L166.091 143.24L77.5027 141.709H77.515Z" fill="#66ACF2"/>
</g>
<g style="mix-blend-mode:screen">
<path d="M75.8397 141.66L0.22559 114.513C0.114701 114.476 0.0407754 114.352 0.0530965 114.229C0.0654175 114.105 0.163989 114.006 0.287199 114.006L53.822 109.772C53.9083 109.772 54.0068 109.809 54.0561 109.883L76.1231 141.252C76.1847 141.351 76.1847 141.474 76.1231 141.561C76.0738 141.622 76.0122 141.66 75.9382 141.66C75.9013 141.66 75.8643 141.66 75.8274 141.647L75.8397 141.66ZM1.54395 114.439L75.236 140.894L53.7234 110.328L1.54395 114.451V114.439Z" fill="#66ACF2"/>
</g>
<g style="mix-blend-mode:screen">
<path d="M0.0652782 114.34C0.0283151 114.216 0.102254 114.08 0.213143 114.031L84.5135 78.0575C84.6244 78.0081 84.76 78.0575 84.8339 78.1439C84.9078 78.2426 84.8955 78.3908 84.8092 78.4772L54.0437 110.216C54.0437 110.216 53.9451 110.291 53.8712 110.291L0.336342 114.525C0.213132 114.525 0.0899202 114.451 0.0652782 114.327V114.34ZM83.5279 79.0574L1.8888 113.883L53.7356 109.784L83.5279 79.0451V79.0574Z" fill="#66ACF2"/>
</g>
<g style="mix-blend-mode:screen">
<path d="M75.7166 141.561L53.6497 110.192C53.6004 110.118 53.588 110.019 53.625 109.933C53.662 109.846 53.7482 109.784 53.8345 109.784L163.726 97.859C163.861 97.859 163.972 97.9207 164.009 98.0442C164.046 98.1676 163.984 98.2911 163.873 98.3528L76.0493 141.647C76.0493 141.647 75.9877 141.672 75.9507 141.672C75.8645 141.672 75.7659 141.635 75.7166 141.561V141.561ZM54.3273 110.254L76.0123 141.079L162.309 98.538L54.3273 110.254V110.254Z" fill="#66ACF2"/>
</g>
<g style="mix-blend-mode:screen">
<path d="M167.114 143.203L84.4521 78.5142C84.3535 78.4402 84.3289 78.3044 84.3782 78.1933C84.4274 78.0821 84.5506 78.0204 84.6739 78.0575L163.799 97.8714C163.91 97.8961 163.984 97.9948 163.997 98.1059L167.533 142.98C167.533 143.079 167.483 143.178 167.397 143.227C167.36 143.24 167.336 143.252 167.299 143.252C167.237 143.252 167.175 143.24 167.114 143.203V143.203ZM85.7458 78.8599L166.966 142.425L163.491 98.3281L85.7458 78.8599V78.8599Z" fill="#66ACF2"/>
</g>
<g style="mix-blend-mode:screen">
<path d="M174.273 75.6131L84.6248 78.5636C84.4892 78.5636 84.366 78.4649 84.3537 78.3291C84.3414 78.1933 84.4276 78.0698 84.5632 78.0451L204.644 54.9598C204.767 54.9351 204.89 54.9968 204.94 55.1203C204.989 55.2314 204.94 55.3672 204.841 55.4412L174.408 75.5761C174.408 75.5761 174.334 75.6131 174.285 75.6131H174.273ZM87.9268 77.934L174.174 75.0946L203.449 55.7252L87.9268 77.934Z" fill="#66ACF2"/>
</g>
<g style="mix-blend-mode:screen">
<path d="M53.6371 110.179C53.5755 110.081 53.5879 109.945 53.6741 109.858L84.4397 78.1192C84.4397 78.1192 84.5629 78.0328 84.6122 78.0451L174.26 75.0947C174.395 75.0947 174.506 75.1811 174.531 75.3169C174.556 75.4527 174.469 75.5761 174.346 75.6132L53.9328 110.303C53.9328 110.303 53.8959 110.303 53.8836 110.303C53.785 110.303 53.6864 110.266 53.6371 110.179V110.179ZM84.7354 78.5636L54.7337 109.525L172.178 75.6872L84.7354 78.5636Z" fill="#66ACF2"/>
</g>
<g style="mix-blend-mode:screen">
<path d="M167.151 143.227C167.077 143.178 167.027 143.104 167.027 143.017L163.491 98.143C163.491 97.9948 163.59 97.8714 163.725 97.859L290.903 87.8101C291.026 87.8101 291.149 87.8842 291.174 88.0076C291.199 88.1311 291.137 88.2545 291.026 88.3163L167.385 143.24C167.385 143.24 167.323 143.264 167.298 143.264C167.249 143.264 167.188 143.264 167.138 143.227H167.151ZM164.033 98.3652L167.52 142.61L289.437 88.4521L164.046 98.3528L164.033 98.3652Z" fill="#66ACF2"/>
</g>
<g style="mix-blend-mode:screen">
<path d="M174.038 75.4773C173.977 75.3539 174.014 75.2181 174.125 75.144L204.558 55.0091C204.558 55.0091 204.619 54.9721 204.644 54.9721L268.479 41.9357C268.627 41.911 268.75 41.9851 268.787 42.1208C268.824 42.2566 268.75 42.3924 268.627 42.4418L174.359 75.6131C174.359 75.6131 174.31 75.6131 174.297 75.6255C174.199 75.6255 174.088 75.5761 174.038 75.4773ZM204.804 55.4783L176.182 74.4157L264.857 43.2072L204.804 55.4783Z" fill="#66ACF2"/>
</g>
<g style="mix-blend-mode:screen">
<path d="M163.529 98.2664C163.479 98.1923 163.467 98.0936 163.504 98.0072L174.026 75.2428C174.075 75.144 174.174 75.0823 174.297 75.0946L290.953 87.8101C291.088 87.8225 291.187 87.9336 291.187 88.0694C291.187 88.2052 291.076 88.3163 290.94 88.3286L163.763 98.3775C163.664 98.3775 163.578 98.3405 163.529 98.2664V98.2664ZM174.42 75.6378L164.169 97.822L288.131 88.0323L174.433 75.6378H174.42Z" fill="#66ACF2"/>
</g>
<g style="mix-blend-mode:screen">
<path d="M290.817 88.3163C290.755 88.2916 290.693 88.2298 290.669 88.1558L280.615 58.1572C280.59 58.0831 280.603 57.9967 280.652 57.9226C280.701 57.8609 280.775 57.8115 280.861 57.8115L366.763 54.1203C366.887 54.1203 366.998 54.1944 367.034 54.3178C367.059 54.4413 366.998 54.5647 366.887 54.6141L291.038 88.3039C291.038 88.3039 290.977 88.3286 290.952 88.3286C290.915 88.3286 290.866 88.3286 290.829 88.3039L290.817 88.3163ZM281.231 58.3176L291.075 87.7113L365.408 54.6882L281.231 58.3053V58.3176Z" fill="#66ACF2"/>
</g>
<g style="mix-blend-mode:screen">
<path d="M167.053 143.129C166.991 143.017 167.016 142.869 167.126 142.783L280.726 57.8608C280.788 57.8115 280.874 57.7991 280.96 57.8238C281.034 57.8485 281.108 57.9102 281.133 57.9843L291.187 87.9829C291.224 88.1064 291.162 88.2545 291.039 88.3039L167.398 143.227C167.398 143.227 167.336 143.252 167.311 143.252C167.213 143.252 167.114 143.215 167.065 143.129H167.053ZM280.739 58.4904L169.295 141.808L290.595 87.9212L280.739 58.4904Z" fill="#66ACF2"/>
</g>
<g style="mix-blend-mode:screen">
<path d="M174.013 75.428C173.976 75.2922 174.05 75.1564 174.186 75.1193L268.454 41.948C268.553 41.911 268.676 41.948 268.75 42.0344L281.083 57.9226C281.145 57.9967 281.157 58.0954 281.12 58.1818C281.083 58.2683 281.009 58.33 280.923 58.3423L174.321 75.6255H174.297C174.174 75.6378 174.05 75.5514 174.026 75.428H174.013ZM268.442 42.5035L177.118 74.6379L280.393 57.8979L268.442 42.5035Z" fill="#66ACF2"/>
</g>
<g style="mix-blend-mode:screen">
<path d="M290.706 88.2051C290.644 88.094 290.669 87.9459 290.78 87.8595L379.528 21.3811C379.627 21.307 379.75 21.307 379.848 21.3811C379.947 21.4551 379.972 21.5786 379.935 21.6897L367.047 54.4783C367.022 54.54 366.973 54.5894 366.911 54.6264L291.063 88.3162C291.063 88.3162 291.002 88.3409 290.977 88.3409C290.878 88.3409 290.78 88.3039 290.73 88.2175L290.706 88.2051ZM379.097 22.3563L292.948 86.8965L366.591 54.182L379.109 22.3563H379.097Z" fill="#66ACF2"/>
</g>
<g style="mix-blend-mode:screen">
<path d="M366.788 54.6388L280.886 58.33C280.799 58.33 280.725 58.2929 280.664 58.2312L268.33 42.3431C268.269 42.2566 268.257 42.1455 268.306 42.0591C268.355 41.9727 268.454 41.911 268.565 41.9233L366.812 54.1203C366.948 54.1326 367.046 54.2561 367.046 54.3919C367.046 54.5277 366.936 54.6264 366.8 54.6388H366.788ZM280.996 57.7991L363.634 54.2437L269.131 42.5159L280.996 57.7991Z" fill="#66ACF2"/>
</g>
<g style="mix-blend-mode:screen">
<path d="M280.665 58.2312L268.331 42.343C268.27 42.269 268.257 42.1702 268.294 42.0838C268.331 41.9974 268.405 41.9357 268.491 41.9233L379.627 21.3317C379.762 21.307 379.886 21.3934 379.923 21.5169C379.96 21.6526 379.886 21.7884 379.762 21.8378L280.973 58.3176C280.973 58.3176 280.923 58.33 280.899 58.33C280.812 58.33 280.726 58.3053 280.677 58.2312H280.665ZM268.997 42.3554L280.948 57.7497L376.695 22.3934L268.997 42.343V42.3554Z" fill="#66ACF2"/>
</g>
<g style="mix-blend-mode:screen">
<path d="M366.554 54.5153C366.48 54.4042 366.517 54.2561 366.615 54.1697L405.821 23.5168C405.821 23.5168 405.882 23.4797 405.907 23.4674L486.992 0.690658C487.127 0.653622 487.263 0.727693 487.312 0.851144C487.361 0.974595 487.3 1.12274 487.176 1.18446L366.899 54.6141C366.899 54.6141 366.837 54.6388 366.812 54.6388C366.714 54.6388 366.615 54.6018 366.566 54.5153H366.554ZM406.104 23.9612L368.611 53.2808L483.64 2.18442L406.104 23.9735V23.9612Z" fill="#66ACF2"/>
</g>
<g style="mix-blend-mode:screen">
<path d="M405.957 23.9859L379.639 21.8502C379.504 21.8502 379.405 21.7391 379.405 21.6033C379.405 21.4675 379.492 21.3564 379.615 21.3317L487.005 0.690666C487.14 0.665976 487.276 0.752393 487.313 0.888189C487.35 1.02399 487.263 1.15978 487.128 1.19682L406.043 23.9735C406.043 23.9735 406.006 23.9735 405.994 23.9735C405.982 23.9735 405.969 23.9735 405.957 23.9735V23.9859ZM381.598 21.4798L405.945 23.455L480.98 2.38195L381.598 21.4922V21.4798Z" fill="#66ACF2"/>
</g>
<g style="mix-blend-mode:screen">
<path d="M136.779 311.886C136.668 311.862 136.582 311.763 136.57 311.639L128.167 160.264C128.167 160.128 128.253 160.004 128.389 159.992C128.512 159.967 128.648 160.066 128.684 160.189L155.199 277.048C155.199 277.048 155.199 277.172 155.175 277.233L137.075 311.75C137.038 311.837 136.952 311.886 136.866 311.886C136.841 311.886 136.816 311.886 136.792 311.886H136.779ZM128.857 163.35L137.038 310.664L154.657 277.073L128.857 163.35V163.35Z" fill="#66ACF2"/>
</g>
<g style="mix-blend-mode:screen">
<path d="M136.816 311.886C136.681 311.886 136.582 311.775 136.57 311.639L128.167 160.264C128.167 160.152 128.229 160.054 128.327 160.004L167.188 142.746C167.274 142.709 167.385 142.721 167.459 142.783C167.533 142.845 167.57 142.943 167.557 143.03L137.112 311.664C137.087 311.787 136.989 311.874 136.878 311.874C136.878 311.874 136.853 311.874 136.841 311.874L136.816 311.886ZM128.697 160.424L136.977 309.393L166.941 143.437L128.697 160.424Z" fill="#66ACF2"/>
</g>
<g style="mix-blend-mode:screen">
<path d="M136.743 311.874C136.619 311.837 136.546 311.701 136.57 311.578L167.015 142.943C167.04 142.808 167.163 142.709 167.299 142.734C167.434 142.746 167.533 142.869 167.533 143.005L162.617 262.95C162.617 262.95 162.617 263.024 162.592 263.061L137.063 311.738C137.026 311.824 136.94 311.874 136.854 311.874C136.817 311.874 136.78 311.874 136.743 311.862V311.874ZM166.855 146.77L137.383 309.997L162.099 262.876L166.855 146.77Z" fill="#66ACF2"/>
</g>
<g style="mix-blend-mode:screen">
<path d="M248.852 163.387L167.213 143.252C167.102 143.227 167.028 143.129 167.016 143.017C167.016 142.906 167.065 142.795 167.176 142.758L290.817 87.8348C290.903 87.7978 291.002 87.8101 291.088 87.8718C291.162 87.9336 291.199 88.0323 291.187 88.1187L282.353 140.585C282.353 140.66 282.303 140.721 282.242 140.758L249.061 163.35C249.061 163.35 248.975 163.387 248.938 163.399C248.913 163.399 248.876 163.399 248.852 163.399V163.387ZM290.583 88.5014L168.075 142.919L248.864 162.844L281.848 140.376L290.583 88.4891V88.5014Z" fill="#66ACF2"/>
</g>
<g style="mix-blend-mode:screen">
<path d="M162.345 263.209C162.247 263.209 162.148 263.135 162.123 263.037L128.179 160.35C128.142 160.239 128.179 160.128 128.278 160.054C128.364 159.992 128.487 159.992 128.586 160.054L184.264 200.101C184.351 200.163 184.388 200.274 184.363 200.385L172.695 243.828C172.695 243.828 172.695 243.865 172.67 243.877L162.604 263.074C162.567 263.16 162.481 263.209 162.395 263.209C162.382 263.209 162.37 263.209 162.358 263.209H162.345ZM183.808 200.41L128.931 160.943L162.419 262.284L172.19 243.655L183.796 200.41H183.808Z" fill="#66ACF2"/>
</g>
<g style="mix-blend-mode:screen">
<path d="M184.043 200.558C183.957 200.533 183.883 200.472 183.858 200.373L167.04 143.067C167.003 142.943 167.065 142.808 167.188 142.758L290.829 87.8348C290.94 87.7854 291.076 87.8224 291.15 87.9212C291.223 88.0199 291.211 88.1681 291.125 88.2545L184.302 200.484C184.302 200.484 184.191 200.558 184.129 200.57C184.105 200.57 184.08 200.57 184.043 200.57V200.558ZM167.594 143.141L184.228 199.793L289.831 88.8471L167.594 143.141V143.141Z" fill="#66ACF2"/>
</g>
<g style="mix-blend-mode:screen">
<path d="M305.639 124.71C305.565 124.685 305.503 124.636 305.466 124.561L290.681 88.1804C290.632 88.0446 290.681 87.8965 290.816 87.8471L366.665 54.1573C366.763 54.1079 366.886 54.1326 366.96 54.219C367.034 54.3054 367.059 54.4166 367.01 54.5153L345.633 97.5627C345.633 97.5627 345.583 97.6368 345.546 97.6615L305.86 124.697C305.86 124.697 305.774 124.734 305.737 124.747C305.7 124.747 305.675 124.747 305.639 124.747V124.71ZM366.221 54.9104L291.26 88.2051L305.836 124.055L345.201 97.2417L366.221 54.9104V54.9104Z" fill="#66ACF2"/>
</g>
<g style="mix-blend-mode:screen">
<path d="M354.369 91.5753L290.916 88.3409C290.793 88.3409 290.694 88.2422 290.669 88.1311C290.645 88.0076 290.706 87.8965 290.817 87.8471L366.665 54.1573C366.727 54.1326 366.801 54.1326 366.863 54.1573C366.924 54.182 366.974 54.2314 367.01 54.2931L376.584 76.2674C376.633 76.3785 376.584 76.5143 376.498 76.5884L354.529 91.5506C354.529 91.5506 354.443 91.5877 354.406 91.6C354.406 91.6 354.381 91.6 354.369 91.6V91.5753ZM366.641 54.7252L292.025 87.8718L354.295 91.0568L376.017 76.2674L366.641 54.7375V54.7252Z" fill="#66ACF2"/>
</g>
<g style="mix-blend-mode:screen">
<path d="M204.57 193.361L167.077 143.153C167.028 143.091 167.016 143.005 167.028 142.931C167.053 142.857 167.102 142.795 167.176 142.758L290.817 87.8348C290.916 87.7854 291.027 87.8101 291.101 87.8842C291.174 87.9582 291.199 88.0693 291.162 88.1681L263.058 153.758C263.058 153.758 263.009 153.844 262.959 153.869L204.915 193.398C204.915 193.398 204.829 193.435 204.792 193.447C204.706 193.447 204.619 193.423 204.558 193.348L204.57 193.361ZM290.423 88.5878L167.681 143.104L204.829 192.842L262.602 153.486L290.411 88.5755L290.423 88.5878Z" fill="#66ACF2"/>
</g>
<g style="mix-blend-mode:screen">
<path d="M179.003 231.297C178.88 231.26 178.806 231.137 178.831 231.001L183.833 200.249C183.846 200.151 183.907 200.077 184.006 200.052C184.092 200.015 184.191 200.039 184.264 200.101L191.977 206.582C192.076 206.656 192.101 206.792 192.039 206.903L179.311 231.161C179.274 231.248 179.188 231.297 179.102 231.297C179.065 231.297 179.028 231.297 179.003 231.285V231.297ZM184.277 200.793L179.607 229.495L191.485 206.842L184.277 200.793V200.793Z" fill="#66ACF2"/>
</g>
<g style="mix-blend-mode:screen">
<path d="M191.645 206.99L183.932 200.509C183.932 200.509 183.858 200.435 183.846 200.385L167.027 143.079C166.99 142.956 167.052 142.832 167.163 142.771C167.274 142.709 167.409 142.746 167.483 142.845L204.976 193.052C204.976 193.052 205.038 193.176 205.025 193.25C205.025 193.324 204.976 193.385 204.914 193.423L195.895 199.57L192.039 206.916C192.002 206.99 191.94 207.039 191.854 207.052H191.83C191.768 207.052 191.694 207.052 191.645 206.99V206.99ZM167.939 144.326L184.326 200.163L191.731 206.385L195.464 199.274C195.464 199.274 195.514 199.2 195.55 199.175L204.397 193.151L167.927 144.326H167.939Z" fill="#66ACF2"/>
</g>
<g style="mix-blend-mode:screen">
<path d="M172.338 243.988C172.214 243.939 172.141 243.803 172.178 243.679L183.846 200.237C183.882 200.101 184.018 200.015 184.154 200.052C184.289 200.077 184.375 200.212 184.351 200.348L179.348 231.1C179.348 231.1 179.336 231.149 179.324 231.174L172.658 243.877C172.621 243.963 172.535 244.013 172.449 244.013C172.412 244.013 172.375 244.013 172.338 244V243.988ZM183.008 205.36L173.299 241.531L178.843 230.952L183.008 205.348V205.36Z" fill="#66ACF2"/>
</g>
<g style="mix-blend-mode:screen">
<path d="M376.276 76.6008C376.202 76.5761 376.14 76.5267 376.103 76.4526L366.53 54.4783C366.468 54.3425 366.53 54.1944 366.665 54.1327L486.943 0.70304C487.066 0.65366 487.214 0.70304 487.276 0.814146C487.337 0.937597 487.3 1.08574 487.19 1.15981L376.473 76.5637C376.473 76.5637 376.387 76.6008 376.35 76.6131C376.313 76.6131 376.288 76.6131 376.251 76.6131L376.276 76.6008ZM367.121 54.5154L376.461 75.9588L484.516 2.36963L367.121 54.5154V54.5154Z" fill="#66ACF2"/>
</g>
<g style="mix-blend-mode:screen">
<path d="M136.693 311.849C136.57 311.775 136.533 311.627 136.595 311.504L195.465 199.262C195.501 199.2 195.563 199.151 195.637 199.126C195.711 199.114 195.785 199.126 195.846 199.163L209.276 208.298C209.276 208.298 209.375 208.397 209.387 208.471C209.4 208.545 209.387 208.607 209.35 208.669L137.051 311.775C137.001 311.837 136.927 311.874 136.853 311.886C136.804 311.886 136.743 311.886 136.693 311.849ZM195.797 199.768L138.948 308.158L208.759 208.595L195.785 199.78L195.797 199.768Z" fill="#66ACF2"/>
</g>
<g style="mix-blend-mode:screen">
<path d="M136.668 311.837C136.57 311.763 136.533 311.615 136.595 311.504L195.464 199.262C195.526 199.138 195.674 199.089 195.797 199.138C195.92 199.188 195.982 199.323 195.945 199.459L172.547 278.27C172.547 278.27 172.51 278.357 172.473 278.382L137.001 311.812C137.001 311.812 136.903 311.874 136.841 311.886C136.779 311.886 136.718 311.874 136.668 311.837ZM194.676 201.879L137.777 310.368L172.067 278.048L194.676 201.879Z" fill="#66ACF2"/>
</g>
<g style="mix-blend-mode:screen">
<path d="M172.128 278.382C172.03 278.295 172.018 278.135 172.091 278.024L209.769 228.865L211.371 210.187C211.371 210.101 211.432 210.014 211.519 209.977C211.605 209.94 211.704 209.94 211.777 210.002L220.168 215.705C220.168 215.705 220.267 215.804 220.279 215.878C220.279 215.952 220.279 216.026 220.23 216.076L210.274 229.063L209.005 243.84C209.005 243.902 208.968 243.963 208.919 244.013L172.461 278.369C172.461 278.369 172.363 278.431 172.301 278.443C172.227 278.443 172.165 278.431 172.104 278.382H172.128ZM209.695 229.841L174.482 275.777L208.5 243.704L209.683 229.841H209.695ZM211.864 210.681L210.373 228.1L219.663 215.989L211.864 210.693V210.681Z" fill="#66ACF2"/>
</g>
<g style="mix-blend-mode:screen">
<path d="M208.647 244.062C208.549 244.013 208.487 243.914 208.5 243.803L211.383 210.199C211.383 210.113 211.444 210.027 211.531 209.99C211.617 209.953 211.715 209.953 211.789 210.014L230.825 222.964C230.887 223.014 230.936 223.075 230.936 223.162C230.936 223.236 230.912 223.322 230.85 223.372L208.931 244.037C208.931 244.037 208.832 244.099 208.771 244.112C208.721 244.112 208.684 244.112 208.635 244.087L208.647 244.062ZM211.863 210.681L209.079 243.161L230.259 223.199L211.851 210.681H211.863Z" fill="#66ACF2"/>
</g>
<g style="mix-blend-mode:screen">
<path d="M172.165 278.419C172.067 278.357 172.017 278.233 172.054 278.122L195.452 199.311C195.489 199.2 195.587 199.126 195.698 199.126C195.809 199.126 195.92 199.2 195.945 199.311L209.005 243.754C209.03 243.852 209.005 243.951 208.931 244.013L172.473 278.369C172.473 278.369 172.375 278.431 172.313 278.443C172.264 278.443 172.202 278.443 172.153 278.406L172.165 278.419ZM195.698 200.311L172.83 277.345L208.463 243.754L195.698 200.311Z" fill="#66ACF2"/>
</g>
<g style="mix-blend-mode:screen">
<path d="M390.432 66.6876C390.383 66.5765 390.432 66.4407 390.531 66.379L486.918 0.74006C487.029 0.66599 487.165 0.678336 487.251 0.777097C487.337 0.863512 487.35 1.01165 487.276 1.11041L447.405 58.1695C447.405 58.1695 447.306 58.2683 447.232 58.2806L390.716 66.8728H390.691C390.58 66.8728 390.469 66.8234 390.432 66.7123V66.6876ZM486.031 1.96223L391.775 66.1568L447.048 57.7621L486.031 1.97457V1.96223Z" fill="#66ACF2"/>
</g>
<g style="mix-blend-mode:screen">
<path d="M463.915 80.5018L446.986 58.1572C446.912 58.0707 446.912 57.9473 446.986 57.8485L486.857 0.78943C486.931 0.678324 487.066 0.641289 487.19 0.703014C487.3 0.752395 487.362 0.888191 487.325 1.01164L464.396 80.403C464.371 80.5018 464.285 80.5635 464.199 80.5882H464.174C464.088 80.5882 464.001 80.5635 463.94 80.4895L463.915 80.5018ZM447.516 57.9967L464.014 79.7734L486.364 2.39429L447.516 57.9967Z" fill="#66ACF2"/>
</g>
<g style="mix-blend-mode:screen">
<path d="M441.318 154.511C441.195 154.498 441.096 154.4 441.084 154.276L436.747 99.1429C436.747 99.0441 436.784 98.9577 436.858 98.9083L463.977 80.1314C464.063 80.0697 464.186 80.0697 464.285 80.1314C464.371 80.1932 464.408 80.3166 464.383 80.4154L441.602 154.326C441.565 154.424 441.478 154.498 441.367 154.511C441.355 154.511 441.331 154.511 441.318 154.511ZM437.277 99.2417L441.491 152.869L463.644 80.9833L437.265 99.2417H437.277Z" fill="#66ACF2"/>
</g>
<g style="mix-blend-mode:screen">
<path d="M419.547 226.483C419.424 226.47 419.325 226.372 419.313 226.248L412.314 137.289C412.314 137.191 412.351 137.104 412.438 137.042C412.524 136.993 412.622 136.993 412.709 137.042L441.478 154.029C441.577 154.091 441.626 154.214 441.601 154.326L419.83 226.298C419.793 226.396 419.707 226.47 419.596 226.483C419.584 226.483 419.559 226.483 419.547 226.483V226.483ZM412.881 137.746L419.732 224.816L441.035 154.375L412.881 137.746Z" fill="#66ACF2"/>
</g>
<g style="mix-blend-mode:screen">
<path d="M318.637 115.587C318.588 115.475 318.638 115.34 318.736 115.278L390.531 66.379C390.617 66.3173 390.74 66.3173 390.826 66.379L437.153 98.896C437.24 98.9577 437.277 99.0688 437.252 99.1676C437.227 99.2664 437.141 99.3528 437.03 99.3651L318.909 115.735H318.896C318.785 115.735 318.674 115.673 318.637 115.574V115.587ZM390.678 66.9098L319.956 115.08L436.316 98.9454L390.678 66.9098V66.9098Z" fill="#66ACF2"/>
</g>
<g style="mix-blend-mode:screen">
<path d="M233.426 173.633C233.376 173.522 233.426 173.386 233.524 173.312L318.736 115.278C318.736 115.278 318.872 115.229 318.946 115.241L412.647 137.018C412.77 137.042 412.857 137.154 412.844 137.277C412.844 137.4 412.758 137.512 412.635 137.524L233.721 173.781H233.684C233.573 173.794 233.463 173.732 233.426 173.621V173.633ZM318.933 115.772L234.879 173.016L411.341 137.252L318.921 115.772H318.933Z" fill="#66ACF2"/>
</g>
<g style="mix-blend-mode:screen">
<path d="M244.218 232.692L195.55 199.595C195.476 199.546 195.439 199.459 195.439 199.373C195.439 199.286 195.476 199.2 195.55 199.151L233.511 173.288C233.585 173.238 233.684 173.226 233.758 173.263C233.844 173.3 233.893 173.374 233.918 173.461L244.613 232.408C244.637 232.507 244.588 232.618 244.502 232.68C244.465 232.705 244.428 232.717 244.379 232.717C244.317 232.717 244.268 232.717 244.206 232.668L244.218 232.692ZM196.166 199.385L243.997 231.915L233.474 173.979L196.154 199.398L196.166 199.385Z" fill="#66ACF2"/>
</g>
<g style="mix-blend-mode:screen">
<path d="M323.615 284.295L244.231 232.692C244.132 232.631 244.095 232.507 244.12 232.396C244.157 232.285 244.255 232.211 244.366 232.211L299.86 232.408C299.959 232.408 300.057 232.47 300.094 232.557L323.985 283.962C324.034 284.073 324.009 284.196 323.923 284.27C323.886 284.307 323.824 284.332 323.775 284.332C323.713 284.332 323.664 284.332 323.615 284.295V284.295ZM245.253 232.742L323.134 283.369L299.7 232.939L245.253 232.742Z" fill="#66ACF2"/>
</g>
<g style="mix-blend-mode:screen">
<path d="M323.677 284.332C323.603 284.307 323.553 284.258 323.516 284.196L299.626 232.791C299.589 232.717 299.589 232.618 299.638 232.544C299.688 232.47 299.749 232.433 299.848 232.421L419.559 225.964C419.682 225.964 419.793 226.038 419.817 226.149C419.854 226.261 419.805 226.384 419.707 226.446L323.874 284.307C323.874 284.307 323.8 284.344 323.763 284.344C323.726 284.344 323.701 284.344 323.664 284.344L323.677 284.332ZM300.267 232.915L323.874 283.702L418.561 226.532L300.279 232.902L300.267 232.915Z" fill="#66ACF2"/>
</g>
<g style="mix-blend-mode:screen">
<path d="M323.566 284.258C323.479 284.171 323.467 284.036 323.529 283.937L412.363 137.129C412.425 137.03 412.536 136.981 412.647 137.005C412.758 137.03 412.844 137.129 412.844 137.24L419.842 226.199C419.842 226.298 419.805 226.396 419.719 226.446L323.886 284.307C323.886 284.307 323.812 284.344 323.775 284.344C323.701 284.344 323.627 284.32 323.566 284.27V284.258ZM412.388 138.092L324.527 283.307L419.312 226.088L412.388 138.104V138.092Z" fill="#66ACF2"/>
</g>
<g style="mix-blend-mode:screen">
<path d="M299.787 232.927L195.625 199.632C195.526 199.607 195.464 199.521 195.44 199.422C195.427 199.323 195.464 199.225 195.551 199.163L233.512 173.3C233.61 173.238 233.746 173.238 233.832 173.325L300.033 232.47C300.119 232.557 300.144 232.692 300.082 232.791C300.033 232.865 299.959 232.915 299.873 232.927C299.836 232.927 299.811 232.927 299.774 232.927H299.787ZM196.29 199.299L298.776 232.05L233.647 173.856L196.29 199.299V199.299Z" fill="#66ACF2"/>
</g>
<g style="mix-blend-mode:screen">
<path d="M419.386 226.396L318.687 115.661C318.613 115.574 318.6 115.451 318.65 115.352C318.711 115.253 318.822 115.204 318.933 115.229L412.634 137.005C412.745 137.03 412.832 137.129 412.832 137.24L419.83 226.199C419.83 226.31 419.781 226.409 419.67 226.458C419.645 226.458 419.62 226.483 419.583 226.483C419.51 226.483 419.423 226.458 419.374 226.396H419.386ZM319.635 115.932L419.251 225.483L412.326 137.474L319.635 115.932V115.932Z" fill="#66ACF2"/>
</g>
<g style="mix-blend-mode:screen">
<path d="M436.858 99.3281L390.531 66.8111C390.445 66.7493 390.408 66.6382 390.432 66.5395C390.457 66.4407 390.543 66.3543 390.642 66.3419L447.158 57.7497C447.244 57.7374 447.331 57.7744 447.392 57.8362C447.454 57.8979 447.479 57.9966 447.454 58.0707L437.265 99.1799C437.24 99.2663 437.178 99.3281 437.104 99.3651C437.08 99.3651 437.055 99.3774 437.03 99.3774C436.969 99.3774 436.907 99.3774 436.858 99.3281V99.3281ZM391.356 66.7493L436.846 98.6738L446.85 58.3176L391.369 66.7493H391.356Z" fill="#66ACF2"/>
</g>
<g style="mix-blend-mode:screen">
<path d="M318.65 115.611C318.588 115.488 318.625 115.34 318.736 115.266L390.531 66.3667C390.531 66.3667 390.605 66.3296 390.641 66.3296L447.158 57.7374C447.294 57.7127 447.417 57.7992 447.454 57.9226C447.491 58.0461 447.429 58.1819 447.306 58.2312L318.995 115.722C318.995 115.722 318.933 115.747 318.909 115.747C318.81 115.747 318.711 115.71 318.662 115.611H318.65ZM390.777 66.8358L321.471 114.031L445.335 58.5399L390.777 66.8358V66.8358Z" fill="#66ACF2"/>
</g>
<g style="mix-blend-mode:screen">
<path d="M299.737 232.902C299.638 232.853 299.589 232.742 299.614 232.631L318.625 115.451C318.625 115.377 318.674 115.315 318.736 115.278C318.798 115.241 318.871 115.229 318.945 115.241L412.647 137.018C412.745 137.042 412.819 137.116 412.844 137.215C412.869 137.314 412.844 137.413 412.758 137.474L300.045 232.877C300.045 232.877 299.946 232.939 299.897 232.939C299.848 232.939 299.799 232.939 299.749 232.902H299.737ZM319.093 115.809L300.23 232.013L412.006 137.4L319.081 115.809H319.093Z" fill="#66ACF2"/>
</g>
<g style="mix-blend-mode:screen">
<path d="M412.548 137.524C412.45 137.512 412.363 137.437 412.339 137.339L390.432 66.6629C390.395 66.5518 390.432 66.4407 390.531 66.379C390.617 66.3173 390.74 66.3173 390.839 66.379L437.166 98.896C437.277 98.9824 437.313 99.1306 437.24 99.254L412.807 137.4C412.758 137.474 412.684 137.512 412.61 137.524C412.598 137.524 412.573 137.524 412.561 137.524H412.548ZM391.159 67.2432L412.671 136.647L436.66 99.18L391.159 67.2432V67.2432Z" fill="#66ACF2"/>
</g>
<g style="mix-blend-mode:screen">
<path d="M244.318 232.729C244.207 232.705 244.133 232.631 244.108 232.52L233.414 173.572C233.389 173.473 233.438 173.362 233.524 173.312L318.737 115.278C318.835 115.204 318.971 115.216 319.069 115.303C319.156 115.389 319.168 115.525 319.106 115.636L244.589 232.618C244.539 232.692 244.466 232.729 244.392 232.742C244.367 232.742 244.342 232.742 244.318 232.742V232.729ZM233.956 173.646L244.502 231.766L317.973 116.414L233.943 173.646H233.956Z" fill="#66ACF2"/>
</g>
<g style="mix-blend-mode:screen">
<path d="M419.51 226.47L233.598 173.781C233.5 173.757 233.426 173.67 233.413 173.572C233.401 173.473 233.438 173.374 233.524 173.312L318.736 115.278C318.847 115.204 318.983 115.216 319.081 115.315L419.781 226.051C419.855 226.137 419.867 226.26 419.806 226.359C419.757 226.433 419.683 226.47 419.609 226.483C419.584 226.483 419.547 226.483 419.522 226.483L419.51 226.47ZM234.276 173.423L418.771 225.717L318.847 115.833L234.276 173.423Z" fill="#66ACF2"/>
</g>
<g style="mix-blend-mode:screen" opacity="0.35">
<path d="M0.311523 114.278L84.6242 78.3043L204.693 55.219L268.54 42.1826L379.663 21.5909L487.066 0.94989L366.776 54.3795L290.927 88.0693L167.274 142.993L128.425 160.264L75.9256 141.413L0.311523 114.278Z" fill="#66ACF2"/>
</g>
<g style="mix-blend-mode:multiply" opacity="0.52">
<path d="M128.426 160.264L167.274 142.993L290.928 88.0693L366.776 54.3795L487.066 0.94989L390.679 66.5888L376.349 76.3538L354.381 91.3161L345.399 97.4269L319.981 115.401L305.713 124.45L282.094 140.548L262.823 153.671L248.925 163.14L233.66 173.522L204.779 193.2L195.699 199.385L179.09 231.05L172.436 243.753L162.358 262.95L154.928 277.11L136.829 311.627L128.426 160.264Z" fill="#005DBA"/>
</g>
<g style="mix-blend-mode:multiply">
<path d="M136.828 311.627L195.698 199.385L209.128 208.521L220.032 215.928L230.677 223.174L208.758 243.828L172.3 278.196L136.828 311.627Z" fill="#004488"/>
</g>
<g style="mix-blend-mode:screen" opacity="0.35">
<path d="M195.698 199.385L233.659 173.522L318.884 115.488L390.678 66.5888L487.066 0.94989L464.124 80.3413L441.342 154.251L419.583 226.223L323.751 284.085L244.366 232.482L195.698 199.385Z" fill="#66ACF2"/>
</g>
<g style="mix-blend-mode:color-dodge">
<g style="mix-blend-mode:color-dodge">
<g style="mix-blend-mode:screen">
<path d="M335.789 199.188C335.764 198.928 335.543 198.743 335.296 198.768C335.037 198.793 334.853 199.015 334.877 199.262C334.902 199.509 335.124 199.706 335.37 199.694C335.616 199.681 335.814 199.447 335.789 199.2V199.188Z" fill="#8FBFEF"/>
</g>
</g>
<g style="mix-blend-mode:color-dodge">
<g style="mix-blend-mode:screen">
<path d="M348.947 204.928C348.922 204.632 348.663 204.41 348.368 204.434C348.072 204.459 347.85 204.718 347.875 205.015C347.9 205.311 348.158 205.533 348.454 205.508C348.75 205.484 348.971 205.224 348.947 204.928Z" fill="#8FBFEF"/>
</g>
</g>
<g style="mix-blend-mode:color-dodge">
<g style="mix-blend-mode:screen">
<path d="M358.927 205.471C358.903 205.225 358.693 205.039 358.447 205.064C358.2 205.089 358.016 205.299 358.04 205.545C358.065 205.792 358.274 205.978 358.521 205.953C358.767 205.928 358.952 205.718 358.927 205.471Z" fill="#8FBFEF"/>
</g>
</g>
<g style="mix-blend-mode:color-dodge">
<g style="mix-blend-mode:screen">
<path d="M370.632 189.756C370.608 189.521 370.411 189.336 370.164 189.361C369.918 189.386 369.745 189.583 369.77 189.83C369.795 190.065 369.992 190.25 370.238 190.225C370.472 190.2 370.657 190.003 370.632 189.756Z" fill="#8FBFEF"/>
</g>
</g>
<g style="mix-blend-mode:color-dodge">
<g style="mix-blend-mode:screen">
<path d="M374.981 187.596C374.957 187.262 374.673 187.015 374.341 187.053C374.008 187.077 373.762 187.361 373.799 187.694C373.823 188.028 374.107 188.275 374.439 188.238C374.772 188.213 375.018 187.929 374.981 187.596Z" fill="#8FBFEF"/>
</g>
</g>
<g style="mix-blend-mode:color-dodge">
<g style="mix-blend-mode:screen">
<path d="M379.233 191.546C379.208 191.176 378.875 190.904 378.518 190.929C378.148 190.953 377.877 191.287 377.902 191.645C377.927 192.015 378.259 192.287 378.617 192.262C378.974 192.237 379.257 191.904 379.233 191.546Z" fill="#8FBFEF"/>
</g>
</g>
<g style="mix-blend-mode:color-dodge">
<g style="mix-blend-mode:screen">
<path d="M391.122 191.645C391.098 191.324 390.814 191.077 390.494 191.102C390.174 191.126 389.927 191.41 389.952 191.731C389.977 192.052 390.26 192.299 390.58 192.274C390.901 192.25 391.147 191.966 391.122 191.645Z" fill="#8FBFEF"/>
</g>
</g>
<g style="mix-blend-mode:color-dodge">
<g style="mix-blend-mode:screen">
<path d="M407.892 184.509C407.867 184.151 407.547 183.867 407.177 183.904C406.82 183.929 406.537 184.25 406.574 184.62C406.598 184.978 406.919 185.262 407.288 185.225C407.646 185.201 407.929 184.88 407.892 184.509Z" fill="#8FBFEF"/>
</g>
</g>
<g style="mix-blend-mode:color-dodge">
<g style="mix-blend-mode:screen">
<path d="M395.077 169.276C395.052 169.029 394.843 168.831 394.584 168.856C394.338 168.88 394.141 169.09 394.165 169.35C394.19 169.597 394.399 169.794 394.658 169.769C394.904 169.745 395.102 169.535 395.077 169.276Z" fill="#8FBFEF"/>
</g>
</g>
<g style="mix-blend-mode:color-dodge">
<g style="mix-blend-mode:screen">
<path d="M413.596 163.054C413.559 162.584 413.152 162.239 412.684 162.276C412.216 162.313 411.871 162.72 411.908 163.189C411.945 163.659 412.352 164.004 412.82 163.967C413.288 163.93 413.633 163.523 413.596 163.054Z" fill="#8FBFEF"/>
</g>
</g>
<g style="mix-blend-mode:color-dodge">
<g style="mix-blend-mode:screen">
<path d="M406.991 144.462C406.966 144.079 406.634 143.795 406.252 143.832C405.87 143.857 405.586 144.19 405.623 144.573C405.66 144.956 405.981 145.24 406.363 145.203C406.745 145.178 407.028 144.845 406.991 144.462Z" fill="#8FBFEF"/>
</g>
</g>
<g style="mix-blend-mode:color-dodge">
<g style="mix-blend-mode:screen">
<path d="M425.806 148.992C425.782 148.622 425.449 148.338 425.079 148.375C424.71 148.4 424.426 148.733 424.463 149.104C424.488 149.474 424.82 149.758 425.19 149.721C425.56 149.684 425.843 149.363 425.806 148.992Z" fill="#8FBFEF"/>
</g>
</g>
<g style="mix-blend-mode:color-dodge">
<g style="mix-blend-mode:screen">
<path d="M407.595 133.635C407.558 133.166 407.151 132.82 406.683 132.857C406.215 132.894 405.87 133.302 405.907 133.771C405.944 134.24 406.351 134.586 406.819 134.549C407.287 134.512 407.632 134.104 407.595 133.635Z" fill="#8FBFEF"/>
</g>
</g>
<g style="mix-blend-mode:color-dodge">
<g style="mix-blend-mode:screen">
<path d="M429.822 125.142C429.798 124.821 429.514 124.574 429.182 124.599C428.861 124.623 428.615 124.907 428.639 125.241C428.664 125.561 428.947 125.808 429.28 125.784C429.6 125.759 429.847 125.475 429.822 125.142Z" fill="#8FBFEF"/>
</g>
</g>
<g style="mix-blend-mode:color-dodge">
<g style="mix-blend-mode:screen">
<path d="M426.791 120.611C426.766 120.253 426.446 119.982 426.089 120.006C425.731 120.031 425.46 120.352 425.485 120.71C425.51 121.068 425.83 121.339 426.187 121.315C426.544 121.29 426.816 120.969 426.791 120.611Z" fill="#8FBFEF"/>
</g>
</g>
<g style="mix-blend-mode:color-dodge">
<g style="mix-blend-mode:screen">
<path d="M432.373 110.278C432.348 109.92 432.028 109.661 431.683 109.686C431.326 109.71 431.067 110.031 431.091 110.377C431.116 110.735 431.436 110.994 431.781 110.97C432.139 110.945 432.397 110.624 432.373 110.278Z" fill="#8FBFEF"/>
</g>
</g>
<g style="mix-blend-mode:color-dodge">
<g style="mix-blend-mode:screen">
<path d="M436.094 107.945C436.057 107.488 435.65 107.143 435.194 107.18C434.739 107.217 434.393 107.624 434.43 108.081C434.467 108.538 434.874 108.883 435.33 108.846C435.786 108.809 436.131 108.402 436.094 107.945Z" fill="#8FBFEF"/>
</g>
</g>
<g style="mix-blend-mode:color-dodge">
<g style="mix-blend-mode:screen">
<path d="M407.46 94.7357C407.423 94.2666 407.017 93.9086 406.536 93.9456C406.068 93.9827 405.711 94.3901 405.748 94.8715C405.785 95.3406 406.191 95.6986 406.672 95.6616C407.14 95.6246 407.497 95.2172 407.46 94.7357Z" fill="#8FBFEF"/>
</g>
</g>
<g style="mix-blend-mode:color-dodge">
<g style="mix-blend-mode:screen">
<path d="M404.861 88.02C404.836 87.7484 404.602 87.5509 404.343 87.5756C404.072 87.6003 403.875 87.8348 403.9 88.0941C403.924 88.3657 404.158 88.5632 404.417 88.5385C404.676 88.5138 404.885 88.2792 404.861 88.02Z" fill="#8FBFEF"/>
</g>
</g>
<g style="mix-blend-mode:color-dodge">
<g style="mix-blend-mode:screen">
<path d="M405.723 75.6008C405.686 75.1811 405.329 74.8724 404.91 74.8971C404.491 74.9342 404.183 75.2922 404.207 75.7119C404.244 76.1316 404.602 76.4403 405.021 76.4156C405.44 76.3909 405.748 76.0205 405.723 75.6008Z" fill="#8FBFEF"/>
</g>
</g>
<g style="mix-blend-mode:color-dodge">
<g style="mix-blend-mode:screen">
<path d="M406.967 71.6874C406.93 71.243 406.536 70.8973 406.092 70.9344C405.649 70.9714 405.304 71.3664 405.341 71.8109C405.378 72.2553 405.772 72.601 406.215 72.5639C406.659 72.5269 407.004 72.1318 406.967 71.6874Z" fill="#8FBFEF"/>
</g>
</g>
</g>
<g style="mix-blend-mode:color-dodge">
<g style="mix-blend-mode:color-dodge">
<g style="mix-blend-mode:screen">
<path d="M296.78 234.433C296.756 234.174 296.534 233.989 296.287 234.013C296.029 234.038 295.844 234.26 295.868 234.507C295.893 234.766 296.115 234.951 296.361 234.927C296.62 234.902 296.805 234.68 296.78 234.433Z" fill="#8FBFEF"/>
</g>
</g>
<g style="mix-blend-mode:color-dodge">
<g style="mix-blend-mode:screen">
<path d="M289.793 224.446C289.769 224.187 289.547 224.001 289.288 224.014C289.029 224.038 288.845 224.261 288.857 224.52C288.882 224.779 289.103 224.964 289.362 224.952C289.621 224.94 289.806 224.705 289.793 224.446Z" fill="#8FBFEF"/>
</g>
</g>
<g style="mix-blend-mode:color-dodge">
<g style="mix-blend-mode:screen">
<path d="M284.902 211.619C284.877 211.261 284.569 211.002 284.212 211.027C283.855 211.051 283.596 211.36 283.621 211.718C283.645 212.076 283.953 212.335 284.311 212.311C284.668 212.286 284.927 211.977 284.902 211.619Z" fill="#8FBFEF"/>
</g>
</g>
<g style="mix-blend-mode:color-dodge">
<g style="mix-blend-mode:screen">
<path d="M268.774 201.953C268.75 201.595 268.429 201.323 268.072 201.348C267.715 201.373 267.444 201.694 267.468 202.052C267.493 202.41 267.813 202.681 268.171 202.657C268.528 202.632 268.799 202.311 268.774 201.953Z" fill="#8FBFEF"/>
</g>
</g>
<g style="mix-blend-mode:color-dodge">
<g style="mix-blend-mode:screen">
<path d="M268.577 192.484C268.552 192.176 268.281 191.941 267.973 191.966C267.665 191.99 267.431 192.262 267.456 192.571C267.481 192.879 267.752 193.114 268.06 193.089C268.368 193.064 268.602 192.793 268.577 192.484Z" fill="#8FBFEF"/>
</g>
</g>
<g style="mix-blend-mode:color-dodge">
<g style="mix-blend-mode:screen">
<path d="M283.72 186.299C283.695 186.04 283.473 185.855 283.227 185.867C282.968 185.892 282.783 186.114 282.796 186.373C282.82 186.633 283.042 186.818 283.288 186.806C283.547 186.781 283.732 186.559 283.72 186.312V186.299Z" fill="#8FBFEF"/>
</g>
</g>
<g style="mix-blend-mode:color-dodge">
<g style="mix-blend-mode:screen">
<path d="M289.215 176.744C289.19 176.473 288.956 176.263 288.673 176.288C288.389 176.312 288.192 176.547 288.217 176.831C288.242 177.102 288.476 177.312 288.759 177.288C289.03 177.263 289.24 177.028 289.215 176.744Z" fill="#8FBFEF"/>
</g>
</g>
<g style="mix-blend-mode:color-dodge">
<g style="mix-blend-mode:screen">
<path d="M279.309 172.732C279.284 172.399 279.001 172.152 278.668 172.189C278.335 172.214 278.089 172.498 278.126 172.831C278.15 173.164 278.434 173.411 278.766 173.374C279.099 173.349 279.346 173.065 279.309 172.732Z" fill="#8FBFEF"/>
</g>
</g>
<g style="mix-blend-mode:color-dodge">
<g style="mix-blend-mode:screen">
<path d="M297.618 163.918C297.594 163.597 297.31 163.35 296.99 163.375C296.67 163.399 296.423 163.683 296.448 164.004C296.473 164.325 296.756 164.572 297.076 164.547C297.397 164.523 297.643 164.239 297.618 163.918Z" fill="#8FBFEF"/>
</g>
</g>
<g style="mix-blend-mode:color-dodge">
<g style="mix-blend-mode:screen">
<path d="M294.944 146.857C294.92 146.524 294.624 146.264 294.291 146.301C293.959 146.326 293.7 146.622 293.737 146.956C293.774 147.289 294.057 147.548 294.39 147.511C294.723 147.486 294.981 147.19 294.944 146.857Z" fill="#8FBFEF"/>
</g>
</g>
<g style="mix-blend-mode:color-dodge">
<g style="mix-blend-mode:screen">
<path d="M316.162 145.672C316.137 145.425 315.927 145.252 315.693 145.264C315.447 145.289 315.274 145.499 315.287 145.733C315.311 145.98 315.521 146.153 315.755 146.141C316.001 146.116 316.174 145.906 316.162 145.672Z" fill="#8FBFEF"/>
</g>
</g>
<g style="mix-blend-mode:color-dodge">
<g style="mix-blend-mode:screen">
<path d="M315.471 123.599C315.434 123.142 315.039 122.796 314.571 122.833C314.115 122.87 313.77 123.265 313.807 123.734C313.844 124.191 314.239 124.537 314.707 124.5C315.163 124.463 315.508 124.068 315.471 123.599Z" fill="#8FBFEF"/>
</g>
</g>
<g style="mix-blend-mode:color-dodge">
<g style="mix-blend-mode:screen">
<path d="M328.347 117.241C328.322 116.895 328.014 116.636 327.682 116.673C327.337 116.698 327.078 117.006 327.115 117.34C327.139 117.685 327.448 117.945 327.78 117.908C328.125 117.883 328.384 117.574 328.347 117.241Z" fill="#8FBFEF"/>
</g>
</g>
<g style="mix-blend-mode:color-dodge">
<g style="mix-blend-mode:screen">
<path d="M339.399 104.785C339.374 104.501 339.128 104.291 338.844 104.316C338.561 104.34 338.351 104.587 338.376 104.871C338.401 105.155 338.647 105.365 338.93 105.34C339.214 105.316 339.423 105.069 339.399 104.785Z" fill="#8FBFEF"/>
</g>
</g>
<g style="mix-blend-mode:color-dodge">
<g style="mix-blend-mode:screen">
<path d="M353.161 100.254C353.124 99.8466 352.779 99.5504 352.372 99.575C351.966 99.6121 351.67 99.9577 351.695 100.365C351.732 100.773 352.077 101.069 352.483 101.044C352.89 101.007 353.186 100.661 353.161 100.254Z" fill="#8FBFEF"/>
</g>
</g>
<g style="mix-blend-mode:color-dodge">
<g style="mix-blend-mode:screen">
<path d="M366.479 117.29C366.443 116.883 366.098 116.587 365.691 116.624C365.284 116.661 364.989 117.006 365.026 117.414C365.063 117.821 365.408 118.117 365.814 118.08C366.221 118.043 366.516 117.698 366.479 117.29Z" fill="#8FBFEF"/>
</g>
</g>
<g style="mix-blend-mode:color-dodge">
<g style="mix-blend-mode:screen">
<path d="M373.145 104.167C373.12 103.797 372.8 103.526 372.43 103.55C372.06 103.575 371.789 103.896 371.814 104.266C371.839 104.637 372.159 104.908 372.529 104.883C372.898 104.859 373.169 104.538 373.145 104.167Z" fill="#8FBFEF"/>
</g>
</g>
<g style="mix-blend-mode:color-dodge">
<g style="mix-blend-mode:screen">
<path d="M382.904 102.106C382.879 101.81 382.62 101.587 382.325 101.612C382.029 101.637 381.807 101.896 381.832 102.192C381.857 102.488 382.115 102.711 382.411 102.686C382.707 102.661 382.929 102.402 382.904 102.106Z" fill="#8FBFEF"/>
</g>
</g>
<g style="mix-blend-mode:color-dodge">
<g style="mix-blend-mode:screen">
<path d="M382.817 98.1183C382.805 97.8837 382.596 97.7232 382.374 97.7356C382.14 97.7479 381.98 97.9578 381.992 98.18C382.004 98.4146 382.214 98.5751 382.435 98.5627C382.67 98.5504 382.83 98.3405 382.817 98.1183Z" fill="#8FBFEF"/>
</g>
</g>
<g style="mix-blend-mode:color-dodge">
<g style="mix-blend-mode:screen">
<path d="M388.042 99.4639C388.017 99.1183 387.709 98.859 387.364 98.8837C387.019 98.9084 386.76 99.217 386.785 99.5627C386.809 99.9083 387.118 100.168 387.463 100.143C387.807 100.118 388.066 99.8096 388.042 99.4639Z" fill="#8FBFEF"/>
</g>
</g>
</g>
<g style="mix-blend-mode:color-dodge">
<g style="mix-blend-mode:color-dodge">
<g style="mix-blend-mode:screen">
<path d="M304.949 185.929C304.925 185.67 304.703 185.472 304.444 185.497C304.185 185.522 303.988 185.744 304.013 186.003C304.037 186.262 304.259 186.46 304.518 186.435C304.777 186.411 304.974 186.188 304.949 185.929Z" fill="#8FBFEF"/>
</g>
</g>
<g style="mix-blend-mode:color-dodge">
<g style="mix-blend-mode:screen">
<path d="M300.563 173.769C300.538 173.461 300.267 173.226 299.947 173.251C299.639 173.275 299.405 173.547 299.43 173.868C299.454 174.189 299.725 174.411 300.046 174.386C300.354 174.362 300.588 174.09 300.563 173.769Z" fill="#8FBFEF"/>
</g>
</g>
<g style="mix-blend-mode:color-dodge">
<g style="mix-blend-mode:screen">
<path d="M311.812 160.424C311.787 160.14 311.541 159.93 311.257 159.955C310.974 159.98 310.764 160.227 310.789 160.511C310.814 160.794 311.06 161.004 311.344 160.98C311.627 160.955 311.836 160.708 311.812 160.424Z" fill="#8FBFEF"/>
</g>
</g>
<g style="mix-blend-mode:color-dodge">
<g style="mix-blend-mode:screen">
<path d="M311.75 148.425C311.738 148.19 311.529 148.017 311.294 148.042C311.06 148.067 310.888 148.264 310.913 148.499C310.925 148.733 311.134 148.906 311.368 148.881C311.602 148.869 311.775 148.659 311.75 148.425Z" fill="#8FBFEF"/>
</g>
</g>
<g style="mix-blend-mode:color-dodge">
<g style="mix-blend-mode:screen">
<path d="M323.849 142.289C323.812 141.832 323.417 141.499 322.961 141.536C322.506 141.573 322.173 141.968 322.21 142.425C322.247 142.882 322.641 143.215 323.097 143.178C323.553 143.141 323.886 142.746 323.849 142.289Z" fill="#8FBFEF"/>
</g>
</g>
<g style="mix-blend-mode:color-dodge">
<g style="mix-blend-mode:screen">
<path d="M340.125 159.918C340.101 159.523 339.756 159.239 339.362 159.264C338.967 159.288 338.684 159.634 338.709 160.029C338.733 160.424 339.078 160.708 339.472 160.683C339.867 160.659 340.15 160.313 340.125 159.918Z" fill="#8FBFEF"/>
</g>
</g>
<g style="mix-blend-mode:color-dodge">
<g style="mix-blend-mode:screen">
<path d="M331.131 138.351C331.106 138.092 330.884 137.894 330.626 137.919C330.367 137.944 330.17 138.166 330.194 138.425C330.219 138.684 330.441 138.882 330.7 138.857C330.958 138.832 331.156 138.61 331.131 138.351Z" fill="#8FBFEF"/>
</g>
</g>
<g style="mix-blend-mode:color-dodge">
<g style="mix-blend-mode:screen">
<path d="M354.997 146.449C354.961 146.03 354.603 145.709 354.172 145.746C353.753 145.783 353.433 146.141 353.47 146.573C353.507 147.005 353.864 147.314 354.295 147.277C354.714 147.24 355.034 146.882 354.997 146.449Z" fill="#8FBFEF"/>
</g>
</g>
<g style="mix-blend-mode:color-dodge">
<g style="mix-blend-mode:screen">
<path d="M355.799 127.771C355.774 127.463 355.503 127.24 355.207 127.265C354.899 127.29 354.677 127.561 354.702 127.858C354.727 128.166 354.998 128.389 355.293 128.364C355.601 128.339 355.823 128.068 355.799 127.771Z" fill="#8FBFEF"/>
</g>
</g>
</g>
<g style="mix-blend-mode:color-dodge">
<g style="mix-blend-mode:color-dodge">
<g style="mix-blend-mode:screen">
<path d="M312.07 229.1C312.045 228.841 311.824 228.643 311.552 228.656C311.294 228.68 311.097 228.902 311.109 229.174C311.134 229.433 311.355 229.631 311.626 229.618C311.897 229.606 312.082 229.372 312.07 229.1Z" fill="#8FBFEF"/>
</g>
</g>
<g style="mix-blend-mode:color-dodge">
<g style="mix-blend-mode:screen">
<path d="M334.286 244.828C334.261 244.482 333.953 244.223 333.608 244.247C333.263 244.272 333.004 244.581 333.029 244.926C333.054 245.272 333.362 245.531 333.707 245.507C334.052 245.482 334.31 245.173 334.286 244.828Z" fill="#8FBFEF"/>
</g>
</g>
<g style="mix-blend-mode:color-dodge">
<g style="mix-blend-mode:screen">
<path d="M333.558 240.519C333.534 240.161 333.226 239.902 332.868 239.927C332.511 239.951 332.252 240.26 332.277 240.618C332.302 240.976 332.61 241.235 332.967 241.21C333.324 241.186 333.583 240.877 333.558 240.519Z" fill="#8FBFEF"/>
</g>
</g>
<g style="mix-blend-mode:color-dodge">
<g style="mix-blend-mode:screen">
<path d="M331.267 220.323C331.254 220.088 331.045 219.915 330.811 219.928C330.577 219.94 330.404 220.15 330.417 220.384C330.429 220.619 330.638 220.792 330.873 220.779C331.107 220.767 331.279 220.557 331.267 220.323Z" fill="#8FBFEF"/>
</g>
</g>
<g style="mix-blend-mode:color-dodge">
<g style="mix-blend-mode:screen">
<path d="M339.04 218.804C339.016 218.483 338.732 218.236 338.412 218.261C338.092 218.286 337.845 218.57 337.87 218.891C337.895 219.211 338.178 219.458 338.498 219.434C338.819 219.409 339.065 219.125 339.04 218.804Z" fill="#8FBFEF"/>
</g>
</g>
<g style="mix-blend-mode:color-dodge">
<g style="mix-blend-mode:screen">
<path d="M360.972 235.05C360.935 234.655 360.59 234.359 360.196 234.384C359.802 234.408 359.506 234.766 359.531 235.161C359.568 235.556 359.913 235.853 360.307 235.828C360.701 235.791 360.997 235.445 360.972 235.05Z" fill="#8FBFEF"/>
</g>
</g>
</g>
<g style="mix-blend-mode:color-dodge">
<g style="mix-blend-mode:color-dodge">
<g style="mix-blend-mode:screen">
<path d="M330.208 190.003C330.183 189.744 329.961 189.546 329.69 189.559C329.431 189.583 329.234 189.805 329.247 190.077C329.271 190.336 329.493 190.534 329.764 190.521C330.023 190.497 330.22 190.275 330.208 190.003Z" fill="#8FBFEF"/>
</g>
</g>
<g style="mix-blend-mode:color-dodge">
<g style="mix-blend-mode:screen">
<path d="M345.202 184.88C345.177 184.583 344.918 184.374 344.635 184.398C344.339 184.423 344.13 184.682 344.154 184.966C344.179 185.25 344.438 185.472 344.721 185.448C345.017 185.423 345.226 185.164 345.202 184.88Z" fill="#8FBFEF"/>
</g>
</g>
<g style="mix-blend-mode:color-dodge">
<g style="mix-blend-mode:screen">
<path d="M355.146 175.572C355.109 175.115 354.714 174.769 354.246 174.806C353.79 174.843 353.445 175.238 353.482 175.707C353.519 176.176 353.913 176.51 354.382 176.473C354.838 176.436 355.183 176.041 355.146 175.572Z" fill="#8FBFEF"/>
</g>
</g>
<g style="mix-blend-mode:color-dodge">
<g style="mix-blend-mode:screen">
<path d="M348.245 150.178C348.22 149.795 347.888 149.511 347.506 149.548C347.124 149.573 346.84 149.906 346.877 150.289C346.902 150.671 347.235 150.955 347.617 150.918C347.998 150.894 348.282 150.56 348.245 150.178Z" fill="#8FBFEF"/>
</g>
</g>
<g style="mix-blend-mode:color-dodge">
<g style="mix-blend-mode:screen">
<path d="M361.22 142.684C361.183 142.252 360.801 141.919 360.369 141.956C359.938 141.993 359.605 142.375 359.642 142.808C359.679 143.24 360.061 143.573 360.493 143.536C360.924 143.499 361.257 143.116 361.22 142.684Z" fill="#8FBFEF"/>
</g>
</g>
<g style="mix-blend-mode:color-dodge">
<g style="mix-blend-mode:screen">
<path d="M372.985 127.475C372.948 127.068 372.603 126.771 372.197 126.808C371.79 126.845 371.494 127.191 371.531 127.598C371.568 128.006 371.913 128.302 372.32 128.265C372.727 128.228 373.022 127.882 372.985 127.475Z" fill="#8FBFEF"/>
</g>
</g>
</g>
<g style="mix-blend-mode:color-dodge">
<g style="mix-blend-mode:color-dodge">
<g style="mix-blend-mode:screen">
<path d="M443.105 68.2308C443.08 67.9592 442.846 67.7493 442.575 67.774C442.304 67.7987 442.095 68.0333 442.119 68.3048C442.144 68.5764 442.378 68.7863 442.649 68.7616C442.92 68.7369 443.129 68.5024 443.105 68.2308Z" fill="#8FBFEF"/>
</g>
</g>
<g style="mix-blend-mode:color-dodge">
<g style="mix-blend-mode:screen">
<path d="M450.214 57.6634C450.189 57.293 449.857 57.0214 449.499 57.0461C449.13 57.0708 448.859 57.4041 448.883 57.7621C448.908 58.1325 449.241 58.4041 449.598 58.3794C449.955 58.3547 450.239 58.0214 450.214 57.6634Z" fill="#8FBFEF"/>
</g>
</g>
<g style="mix-blend-mode:color-dodge">
<g style="mix-blend-mode:screen">
<path d="M446.395 37.8618C446.37 37.4668 446.025 37.1829 445.631 37.2075C445.237 37.2446 444.953 37.5779 444.978 37.9729C445.015 38.368 445.348 38.6519 445.742 38.6272C446.136 38.5902 446.42 38.2569 446.395 37.8618Z" fill="#8FBFEF"/>
</g>
</g>
<g style="mix-blend-mode:color-dodge">
<g style="mix-blend-mode:screen">
<path d="M460.663 42.985C460.626 42.553 460.256 42.232 459.825 42.269C459.394 42.3061 459.073 42.6764 459.11 43.1085C459.147 43.5406 459.517 43.8615 459.948 43.8245C460.379 43.7875 460.7 43.4171 460.663 42.985Z" fill="#8FBFEF"/>
</g>
</g>
<g style="mix-blend-mode:color-dodge">
<g style="mix-blend-mode:screen">
<path d="M450.251 21.5416C450.227 21.2947 450.017 21.1095 449.758 21.1219C449.512 21.1465 449.327 21.3564 449.339 21.6157C449.364 21.8626 449.574 22.0477 449.832 22.0354C450.091 22.0231 450.264 21.8008 450.251 21.5416Z" fill="#8FBFEF"/>
</g>
</g>
</g>
<g style="mix-blend-mode:color-dodge">
<g style="mix-blend-mode:color-dodge">
<g style="mix-blend-mode:screen">
<path d="M412.191 96.9085C412.167 96.5752 411.883 96.3283 411.551 96.3653C411.218 96.39 410.972 96.6739 411.009 97.0073C411.033 97.3406 411.317 97.5875 411.649 97.5504C411.982 97.5258 412.228 97.2418 412.191 96.9085Z" fill="#8FBFEF"/>
</g>
</g>
<g style="mix-blend-mode:color-dodge">
<g style="mix-blend-mode:screen">
<path d="M428.208 98.0689C428.184 97.785 427.937 97.5751 427.654 97.5998C427.37 97.6245 427.161 97.8714 427.186 98.1553C427.21 98.4393 427.457 98.6491 427.74 98.6245C428.023 98.5998 428.233 98.3529 428.208 98.0689Z" fill="#8FBFEF"/>
</g>
</g>
<g style="mix-blend-mode:color-dodge">
<g style="mix-blend-mode:screen">
<path d="M434.554 84.1189C434.517 83.6992 434.16 83.3906 433.741 83.4153C433.322 83.4523 433.014 83.8103 433.038 84.23C433.075 84.6498 433.433 84.9584 433.852 84.9337C434.271 84.8967 434.579 84.5387 434.554 84.1189Z" fill="#8FBFEF"/>
</g>
</g>
<g style="mix-blend-mode:color-dodge">
<g style="mix-blend-mode:screen">
<path d="M438.312 74.9466C438.287 74.6009 437.992 74.354 437.647 74.3787C437.302 74.4034 437.055 74.6997 437.08 75.0454C437.104 75.391 437.4 75.6379 437.745 75.6132C438.09 75.5885 438.337 75.2923 438.312 74.9466Z" fill="#8FBFEF"/>
</g>
</g>
<g style="mix-blend-mode:color-dodge">
<g style="mix-blend-mode:screen">
<path d="M442.711 78.7735C442.686 78.4649 442.415 78.2303 442.107 78.255C441.799 78.2797 441.565 78.5513 441.59 78.8599C441.614 79.1686 441.885 79.4031 442.193 79.3784C442.501 79.3537 442.736 79.0821 442.711 78.7735Z" fill="#8FBFEF"/>
</g>
</g>
<g style="mix-blend-mode:color-dodge">
<g style="mix-blend-mode:screen">
<path d="M456.166 91.2297C456.141 90.9828 455.932 90.7976 455.685 90.8223C455.439 90.847 455.254 91.0569 455.279 91.3038C455.303 91.5507 455.513 91.7359 455.759 91.7112C456.005 91.6865 456.19 91.4766 456.166 91.2297Z" fill="#8FBFEF"/>
</g>
</g>
<g style="mix-blend-mode:color-dodge">
<g style="mix-blend-mode:screen">
<path d="M451.348 70.2183C451.311 69.7616 450.916 69.4282 450.46 69.4653C450.005 69.5023 449.672 69.8974 449.709 70.3541C449.746 70.8109 450.14 71.1442 450.596 71.1072C451.052 71.0701 451.385 70.6751 451.348 70.2183Z" fill="#8FBFEF"/>
</g>
</g>
</g>
<g style="mix-blend-mode:color-dodge">
<g style="mix-blend-mode:color-dodge">
<g style="mix-blend-mode:screen">
<path d="M343.144 52.392C343.12 52.0834 342.849 51.8488 342.541 51.8735C342.233 51.8982 341.999 52.1698 342.023 52.4784C342.048 52.787 342.319 53.0216 342.627 52.9969C342.935 52.9722 343.169 52.7006 343.144 52.392Z" fill="#8FBFEF"/>
</g>
</g>
<g style="mix-blend-mode:color-dodge">
<g style="mix-blend-mode:screen">
<path d="M352.78 40.9605C352.755 40.6148 352.447 40.3556 352.102 40.3803C351.757 40.405 351.498 40.7136 351.523 41.0593C351.548 41.4049 351.856 41.6642 352.201 41.6395C352.546 41.6148 352.805 41.3062 352.78 40.9605Z" fill="#8FBFEF"/>
</g>
</g>
<g style="mix-blend-mode:color-dodge">
<g style="mix-blend-mode:screen">
<path d="M361.687 47.1947C361.663 46.9355 361.441 46.738 361.17 46.7503C360.911 46.775 360.714 46.9972 360.726 47.2688C360.751 47.528 360.973 47.7256 361.244 47.7132C361.515 47.7009 361.699 47.4663 361.687 47.1947Z" fill="#8FBFEF"/>
</g>
</g>
<g style="mix-blend-mode:color-dodge">
<g style="mix-blend-mode:screen">
<path d="M369.437 29.998C369.4 29.5412 369.006 29.1955 368.55 29.2326C368.094 29.2696 367.749 29.6647 367.786 30.1214C367.823 30.5782 368.217 30.9239 368.673 30.8868C369.129 30.8498 369.474 30.4547 369.437 29.998Z" fill="#8FBFEF"/>
</g>
</g>
<g style="mix-blend-mode:color-dodge">
<g style="mix-blend-mode:screen">
<path d="M380.538 35.6768C380.501 35.2076 380.095 34.862 379.627 34.899C379.158 34.9361 378.813 35.3434 378.85 35.8126C378.887 36.2817 379.294 36.6273 379.762 36.5903C380.23 36.5533 380.575 36.1459 380.538 35.6768Z" fill="#8FBFEF"/>
</g>
</g>
<g style="mix-blend-mode:color-dodge">
<g style="mix-blend-mode:screen">
<path d="M383.447 41.3185C383.41 40.8988 383.052 40.5901 382.633 40.6272C382.214 40.6642 381.906 41.0222 381.943 41.4419C381.98 41.8617 382.338 42.1703 382.757 42.1333C383.176 42.0962 383.484 41.7382 383.447 41.3185Z" fill="#8FBFEF"/>
</g>
</g>
<g style="mix-blend-mode:color-dodge">
<g style="mix-blend-mode:screen">
<path d="M399.55 44.2072C399.525 43.9603 399.316 43.7752 399.057 43.7875C398.811 43.8122 398.626 44.0221 398.638 44.2813C398.663 44.5282 398.872 44.7134 399.131 44.701C399.378 44.6764 399.562 44.4665 399.55 44.2072Z" fill="#8FBFEF"/>
</g>
</g>
<g style="mix-blend-mode:color-dodge">
<g style="mix-blend-mode:screen">
<path d="M403.763 42.553C403.726 42.158 403.381 41.8617 402.987 41.8864C402.593 41.9111 402.297 42.2691 402.322 42.6641C402.359 43.0592 402.704 43.3555 403.098 43.3308C403.492 43.2937 403.788 42.9481 403.763 42.553Z" fill="#8FBFEF"/>
</g>
</g>
<g style="mix-blend-mode:color-dodge">
<g style="mix-blend-mode:screen">
<path d="M411.477 42.7999C411.452 42.5653 411.255 42.3925 411.021 42.4049C410.787 42.4295 410.614 42.6271 410.627 42.8616C410.651 43.0962 410.848 43.269 411.082 43.2567C411.317 43.232 411.489 43.0345 411.477 42.7999Z" fill="#8FBFEF"/>
</g>
</g>
<g style="mix-blend-mode:color-dodge">
<g style="mix-blend-mode:screen">
<path d="M409.678 31.393C409.654 31.0967 409.395 30.8745 409.099 30.8992C408.803 30.9239 408.582 31.1832 408.606 31.4794C408.631 31.7757 408.89 31.9979 409.185 31.9732C409.481 31.9486 409.703 31.6893 409.678 31.393Z" fill="#8FBFEF"/>
</g>
</g>
</g>
<g style="mix-blend-mode:color-dodge">
<g style="mix-blend-mode:color-dodge">
<g style="mix-blend-mode:screen">
<path d="M206.442 103.834C206.405 103.427 206.048 103.118 205.642 103.143C205.235 103.18 204.927 103.538 204.952 103.945C204.989 104.353 205.346 104.661 205.752 104.636C206.159 104.599 206.467 104.241 206.442 103.834Z" fill="#8FBFEF"/>
</g>
</g>
<g style="mix-blend-mode:color-dodge">
<g style="mix-blend-mode:screen">
<path d="M213.786 98.6121C213.761 98.2541 213.453 97.9948 213.096 98.0195C212.739 98.0442 212.48 98.3528 212.505 98.7108C212.529 99.0688 212.837 99.3281 213.195 99.3034C213.552 99.2787 213.811 98.9701 213.786 98.6121Z" fill="#8FBFEF"/>
</g>
</g>
<g style="mix-blend-mode:color-dodge">
<g style="mix-blend-mode:screen">
<path d="M224.345 90.094C224.32 89.7606 224.025 89.5014 223.692 89.5384C223.359 89.5631 223.113 89.8594 223.137 90.1927C223.162 90.526 223.458 90.7853 223.79 90.7483C224.123 90.7236 224.382 90.4273 224.345 90.094Z" fill="#8FBFEF"/>
</g>
</g>
<g style="mix-blend-mode:color-dodge">
<g style="mix-blend-mode:screen">
<path d="M232.046 79.2179C232.009 78.8229 231.664 78.5266 231.269 78.5513C230.875 78.5883 230.579 78.934 230.604 79.329C230.641 79.7241 230.986 80.0204 231.38 79.9957C231.774 79.9586 232.07 79.613 232.046 79.2179Z" fill="#8FBFEF"/>
</g>
</g>
<g style="mix-blend-mode:color-dodge">
<g style="mix-blend-mode:screen">
<path d="M247.558 89.3533C247.533 89.0817 247.299 88.8841 247.028 88.8965C246.757 88.9212 246.56 89.1557 246.572 89.4273C246.596 89.6989 246.831 89.8964 247.102 89.8717C247.373 89.8471 247.57 89.6125 247.558 89.3409V89.3533Z" fill="#8FBFEF"/>
</g>
</g>
<g style="mix-blend-mode:color-dodge">
<g style="mix-blend-mode:screen">
<path d="M244.97 69.9221C244.933 69.4406 244.514 69.095 244.046 69.132C243.566 69.169 243.221 69.5888 243.258 70.0579C243.295 70.5393 243.713 70.885 244.182 70.848C244.662 70.8109 245.007 70.3912 244.97 69.9221Z" fill="#8FBFEF"/>
</g>
</g>
<g style="mix-blend-mode:color-dodge">
<g style="mix-blend-mode:screen">
<path d="M262.626 77.6007C262.602 77.2674 262.306 77.0205 261.973 77.0452C261.64 77.0698 261.394 77.3661 261.419 77.6994C261.443 78.0328 261.739 78.2797 262.072 78.255C262.404 78.2303 262.651 77.934 262.626 77.6007Z" fill="#8FBFEF"/>
</g>
</g>
<g style="mix-blend-mode:color-dodge">
<g style="mix-blend-mode:screen">
<path d="M266.396 81.3042C266.359 80.8598 265.977 80.5388 265.546 80.5758C265.103 80.6129 264.782 80.9956 264.819 81.4277C264.856 81.8721 265.238 82.1931 265.669 82.156C266.113 82.119 266.433 81.7363 266.396 81.3042Z" fill="#8FBFEF"/>
</g>
</g>
<g style="mix-blend-mode:color-dodge">
<g style="mix-blend-mode:screen">
<path d="M264.893 64.663C264.869 64.4038 264.647 64.2063 264.376 64.231C264.117 64.2557 263.92 64.4779 263.944 64.7495C263.969 65.0087 264.191 65.2062 264.462 65.1815C264.721 65.1569 264.918 64.9346 264.893 64.663Z" fill="#8FBFEF"/>
</g>
</g>
<g style="mix-blend-mode:color-dodge">
<g style="mix-blend-mode:screen">
<path d="M277.842 66.8358C277.83 66.6259 277.645 66.4654 277.423 66.4778C277.202 66.4901 277.054 66.6753 277.066 66.8975C277.078 67.1197 277.263 67.2679 277.485 67.2555C277.707 67.2432 277.855 67.058 277.842 66.8358Z" fill="#8FBFEF"/>
</g>
</g>
<g style="mix-blend-mode:color-dodge">
<g style="mix-blend-mode:screen">
<path d="M284.029 82.0326C284.004 81.7981 283.807 81.6252 283.573 81.6376C283.339 81.6623 283.166 81.8598 283.178 82.0943C283.203 82.3289 283.4 82.5017 283.634 82.4894C283.868 82.4647 284.041 82.2672 284.029 82.0326Z" fill="#8FBFEF"/>
</g>
</g>
<g style="mix-blend-mode:color-dodge">
<g style="mix-blend-mode:screen">
<path d="M286.135 86.3534C286.11 86.0201 285.815 85.7608 285.47 85.7855C285.137 85.8102 284.878 86.1065 284.903 86.4521C284.928 86.7855 285.223 87.0447 285.568 87.02C285.913 86.9953 286.16 86.699 286.135 86.3534Z" fill="#8FBFEF"/>
</g>
</g>
<g style="mix-blend-mode:color-dodge">
<g style="mix-blend-mode:screen">
<path d="M297.1 70.1936C297.075 69.848 296.767 69.5764 296.422 69.6134C296.077 69.6381 295.806 69.9467 295.843 70.2924C295.868 70.6381 296.176 70.9097 296.521 70.8726C296.866 70.8479 297.137 70.5393 297.1 70.1936Z" fill="#8FBFEF"/>
</g>
</g>
<g style="mix-blend-mode:color-dodge">
<g style="mix-blend-mode:screen">
<path d="M296.472 55.2561C296.448 54.9968 296.226 54.7993 295.955 54.8116C295.696 54.8363 295.499 55.0585 295.511 55.3301C295.536 55.5894 295.758 55.7869 296.029 55.7746C296.287 55.7499 296.485 55.5277 296.472 55.2561Z" fill="#8FBFEF"/>
</g>
</g>
</g>
<g style="mix-blend-mode:color-dodge">
<g style="mix-blend-mode:color-dodge">
<g style="mix-blend-mode:screen">
<path d="M110.82 92.921C110.795 92.6247 110.536 92.4148 110.253 92.4395C109.969 92.4642 109.748 92.7235 109.772 93.0074C109.797 93.3037 110.056 93.5136 110.339 93.4889C110.635 93.4642 110.844 93.2049 110.82 92.921Z" fill="#8FBFEF"/>
</g>
</g>
<g style="mix-blend-mode:color-dodge">
<g style="mix-blend-mode:screen">
<path d="M113.086 93.7482C113.049 93.2791 112.643 92.9334 112.174 92.9704C111.706 93.0075 111.361 93.4149 111.398 93.884C111.435 94.3531 111.842 94.6987 112.31 94.6617C112.778 94.6247 113.123 94.2173 113.086 93.7482Z" fill="#8FBFEF"/>
</g>
</g>
<g style="mix-blend-mode:color-dodge">
<g style="mix-blend-mode:screen">
<path d="M120.713 108.365C120.689 108.081 120.442 107.871 120.171 107.896C119.888 107.92 119.678 108.167 119.703 108.439C119.728 108.723 119.974 108.933 120.245 108.908C120.529 108.883 120.738 108.636 120.713 108.365Z" fill="#8FBFEF"/>
</g>
</g>
<g style="mix-blend-mode:color-dodge">
<g style="mix-blend-mode:screen">
<path d="M132.135 89.3286C132.11 89.0076 131.827 88.7607 131.507 88.7854C131.186 88.8101 130.94 89.094 130.965 89.415C130.989 89.736 131.273 89.9829 131.593 89.9582C131.913 89.9335 132.16 89.6495 132.135 89.3286Z" fill="#8FBFEF"/>
</g>
</g>
<g style="mix-blend-mode:color-dodge">
<g style="mix-blend-mode:screen">
<path d="M148.965 88.0941C148.928 87.662 148.546 87.3287 148.115 87.3657C147.683 87.4028 147.351 87.7855 147.388 88.2175C147.425 88.6496 147.806 88.9829 148.238 88.9459C148.669 88.9089 149.002 88.5262 148.965 88.0941Z" fill="#8FBFEF"/>
</g>
</g>
<g style="mix-blend-mode:color-dodge">
<g style="mix-blend-mode:screen">
<path d="M162.79 87.1065C162.765 86.8102 162.506 86.588 162.211 86.6127C161.915 86.6373 161.693 86.8966 161.718 87.1929C161.742 87.4892 162.001 87.7114 162.297 87.6867C162.592 87.662 162.814 87.4027 162.79 87.1065Z" fill="#8FBFEF"/>
</g>
</g>
<g style="mix-blend-mode:color-dodge">
<g style="mix-blend-mode:screen">
<path d="M176.096 96.2665C176.072 96.032 175.874 95.8468 175.628 95.8715C175.382 95.8962 175.209 96.0937 175.234 96.3406C175.258 96.5751 175.456 96.7603 175.702 96.7356C175.936 96.7109 176.121 96.5134 176.096 96.2665Z" fill="#8FBFEF"/>
</g>
</g>
<g style="mix-blend-mode:color-dodge">
<g style="mix-blend-mode:screen">
<path d="M174.47 80.9092C174.445 80.5759 174.15 80.3167 173.805 80.3413C173.472 80.366 173.213 80.6623 173.238 81.008C173.263 81.3536 173.558 81.6006 173.903 81.5759C174.248 81.5512 174.495 81.2549 174.47 80.9092Z" fill="#8FBFEF"/>
</g>
</g>
<g style="mix-blend-mode:color-dodge">
<g style="mix-blend-mode:screen">
<path d="M177.785 84.4276C177.772 84.2177 177.575 84.0572 177.366 84.0696C177.156 84.0819 176.996 84.2794 177.008 84.4893C177.021 84.6992 177.218 84.8597 177.427 84.8473C177.637 84.835 177.797 84.6375 177.785 84.4276Z" fill="#8FBFEF"/>
</g>
</g>
<g style="mix-blend-mode:color-dodge">
<g style="mix-blend-mode:screen">
<path d="M177.685 77.7983C177.673 77.5884 177.488 77.4279 177.266 77.4402C177.057 77.4526 176.897 77.6501 176.909 77.86C176.921 78.0698 177.106 78.2303 177.328 78.218C177.537 78.2056 177.697 78.0205 177.685 77.7983Z" fill="#8FBFEF"/>
</g>
</g>
<g style="mix-blend-mode:color-dodge">
<g style="mix-blend-mode:screen">
<path d="M185.46 70.2801C185.423 69.8727 185.066 69.5641 184.659 69.5888C184.253 69.6258 183.945 69.9838 183.969 70.3912C184.006 70.7986 184.363 71.1072 184.77 71.0825C185.177 71.0455 185.485 70.6875 185.46 70.2801Z" fill="#8FBFEF"/>
</g>
</g>
</g>
<g style="mix-blend-mode:color-dodge">
<g style="mix-blend-mode:color-dodge">
<g style="mix-blend-mode:screen">
<path d="M136.385 135.722C136.348 135.326 136.015 135.03 135.621 135.067C135.227 135.104 134.931 135.438 134.968 135.833C135.005 136.228 135.338 136.524 135.732 136.487C136.126 136.45 136.422 136.117 136.385 135.722Z" fill="#8FBFEF"/>
</g>
</g>
<g style="mix-blend-mode:color-dodge">
<g style="mix-blend-mode:screen">
<path d="M132.985 118.475C132.948 118.043 132.566 117.71 132.135 117.747C131.704 117.784 131.371 118.167 131.408 118.599C131.445 119.031 131.827 119.364 132.258 119.327C132.689 119.29 133.022 118.907 132.985 118.475Z" fill="#8FBFEF"/>
</g>
</g>
<g style="mix-blend-mode:color-dodge">
<g style="mix-blend-mode:screen">
<path d="M152.205 122.994C152.168 122.549 151.786 122.216 151.343 122.253C150.899 122.29 150.566 122.673 150.603 123.117C150.64 123.562 151.022 123.895 151.466 123.858C151.909 123.821 152.242 123.438 152.205 122.994Z" fill="#8FBFEF"/>
</g>
</g>
<g style="mix-blend-mode:color-dodge">
<g style="mix-blend-mode:screen">
<path d="M159.857 110.352C159.832 109.97 159.487 109.686 159.105 109.71C158.723 109.735 158.44 110.081 158.464 110.463C158.489 110.846 158.834 111.13 159.216 111.105C159.598 111.081 159.881 110.735 159.857 110.352Z" fill="#8FBFEF"/>
</g>
</g>
<g style="mix-blend-mode:color-dodge">
<g style="mix-blend-mode:screen">
<path d="M168.617 117.698C168.593 117.34 168.272 117.068 167.915 117.093C167.558 117.117 167.286 117.438 167.311 117.796C167.336 118.154 167.656 118.426 168.013 118.401C168.371 118.377 168.642 118.056 168.617 117.698Z" fill="#8FBFEF"/>
</g>
</g>
</g>
<g style="mix-blend-mode:color-dodge">
<g style="mix-blend-mode:color-dodge">
<g style="mix-blend-mode:screen">
<path d="M104.634 116.13C104.622 115.92 104.425 115.747 104.215 115.772C104.006 115.784 103.833 115.982 103.858 116.192C103.87 116.401 104.067 116.562 104.277 116.55C104.486 116.537 104.646 116.34 104.634 116.13Z" fill="#8FBFEF"/>
</g>
</g>
<g style="mix-blend-mode:color-dodge">
<g style="mix-blend-mode:screen">
<path d="M89.4908 115.834C89.4661 115.537 89.2074 115.327 88.924 115.34C88.6283 115.364 88.4189 115.624 88.4312 115.908C88.4558 116.204 88.7146 116.414 88.998 116.401C89.2937 116.377 89.5031 116.117 89.4908 115.834Z" fill="#8FBFEF"/>
</g>
</g>
<g style="mix-blend-mode:color-dodge">
<g style="mix-blend-mode:screen">
<path d="M85.192 115.389C85.1551 114.92 84.7485 114.574 84.2926 114.611C83.8244 114.648 83.4794 115.056 83.5164 115.513C83.5533 115.982 83.9599 116.327 84.4158 116.29C84.884 116.253 85.229 115.846 85.192 115.389Z" fill="#8FBFEF"/>
</g>
</g>
<g style="mix-blend-mode:color-dodge">
<g style="mix-blend-mode:screen">
<path d="M84.7726 100.069C84.748 99.7355 84.4523 99.4886 84.1196 99.5133C83.7869 99.538 83.5405 99.8343 83.5652 100.168C83.5898 100.501 83.8855 100.748 84.2182 100.723C84.5509 100.698 84.7973 100.402 84.7726 100.069Z" fill="#8FBFEF"/>
</g>
</g>
<g style="mix-blend-mode:color-dodge">
<g style="mix-blend-mode:screen">
<path d="M75.31 110.081C75.273 109.612 74.8664 109.254 74.3859 109.291C73.9177 109.328 73.5604 109.735 73.5974 110.216C73.6343 110.686 74.0409 111.044 74.5214 111.007C74.9896 110.97 75.3469 110.562 75.31 110.081Z" fill="#8FBFEF"/>
</g>
</g>
<g style="mix-blend-mode:color-dodge">
<g style="mix-blend-mode:screen">
<path d="M68.2379 116.994C68.2132 116.611 67.8806 116.327 67.4986 116.352C67.1167 116.377 66.8333 116.71 66.8579 117.093C66.8826 117.475 67.2152 117.759 67.5972 117.735C67.9791 117.71 68.2625 117.377 68.2379 116.994Z" fill="#8FBFEF"/>
</g>
</g>
<g style="mix-blend-mode:color-dodge">
<g style="mix-blend-mode:screen">
<path d="M71.306 95.4888C71.2814 95.1432 70.9734 94.8716 70.6284 94.9086C70.2834 94.9333 70.0123 95.2419 70.0493 95.5876C70.0739 95.9332 70.3819 96.2048 70.7269 96.1678C71.0719 96.1308 71.343 95.8345 71.306 95.4888Z" fill="#8FBFEF"/>
</g>
</g>
</g>
<g style="mix-blend-mode:color-dodge">
<g style="mix-blend-mode:color-dodge">
<g style="mix-blend-mode:screen">
<path d="M225.343 122.167C225.306 121.747 224.949 121.438 224.53 121.475C224.111 121.512 223.803 121.87 223.84 122.29C223.877 122.71 224.234 123.018 224.653 122.981C225.072 122.944 225.38 122.586 225.343 122.167Z" fill="#8FBFEF"/>
</g>
</g>
<g style="mix-blend-mode:color-dodge">
<g style="mix-blend-mode:screen">
<path d="M243.985 139.178C243.948 138.709 243.541 138.351 243.061 138.388C242.592 138.425 242.235 138.832 242.272 139.314C242.309 139.783 242.716 140.141 243.196 140.104C243.664 140.067 244.022 139.66 243.985 139.178Z" fill="#8FBFEF"/>
</g>
</g>
<g style="mix-blend-mode:color-dodge">
<g style="mix-blend-mode:screen">
<path d="M247.681 126.191C247.657 125.858 247.361 125.599 247.028 125.623C246.696 125.648 246.437 125.944 246.462 126.277C246.486 126.611 246.782 126.87 247.115 126.833C247.447 126.796 247.706 126.512 247.681 126.179V126.191Z" fill="#8FBFEF"/>
</g>
</g>
<g style="mix-blend-mode:color-dodge">
<g style="mix-blend-mode:screen">
<path d="M256.984 128.413C256.959 128.154 256.737 127.969 256.479 127.981C256.22 128.006 256.035 128.228 256.047 128.487C256.072 128.747 256.294 128.932 256.553 128.919C256.811 128.895 256.996 128.672 256.984 128.413Z" fill="#8FBFEF"/>
</g>
</g>
<g style="mix-blend-mode:color-dodge">
<g style="mix-blend-mode:screen">
<path d="M266.656 111.55C266.631 111.167 266.299 110.883 265.917 110.92C265.535 110.945 265.251 111.278 265.288 111.661C265.313 112.044 265.646 112.328 266.028 112.29C266.41 112.266 266.693 111.932 266.656 111.55Z" fill="#8FBFEF"/>
</g>
</g>
<g style="mix-blend-mode:color-dodge">
<g style="mix-blend-mode:screen">
<path d="M277.572 111.772C277.548 111.463 277.276 111.229 276.968 111.254C276.66 111.278 276.426 111.55 276.451 111.858C276.476 112.167 276.747 112.402 277.055 112.377C277.363 112.352 277.597 112.081 277.572 111.772Z" fill="#8FBFEF"/>
</g>
</g>
<g style="mix-blend-mode:color-dodge">
<g style="mix-blend-mode:screen">
<path d="M288.501 103.797C288.476 103.414 288.143 103.13 287.762 103.167C287.38 103.192 287.096 103.525 287.133 103.908C287.158 104.291 287.49 104.575 287.872 104.538C288.254 104.513 288.538 104.18 288.501 103.797Z" fill="#8FBFEF"/>
</g>
</g>
<g style="mix-blend-mode:color-dodge">
<g style="mix-blend-mode:screen">
<path d="M288.205 101.316C288.18 100.97 287.884 100.723 287.539 100.748C287.194 100.772 286.948 101.069 286.972 101.414C286.997 101.76 287.293 102.007 287.638 101.982C287.983 101.958 288.229 101.661 288.205 101.316Z" fill="#8FBFEF"/>
</g>
</g>
<g style="mix-blend-mode:color-dodge">
<g style="mix-blend-mode:screen">
<path d="M307.191 100.81C307.166 100.563 306.957 100.377 306.711 100.402C306.464 100.427 306.279 100.637 306.304 100.884C306.329 101.131 306.538 101.303 306.784 101.291C307.031 101.266 307.216 101.056 307.191 100.81Z" fill="#8FBFEF"/>
</g>
</g>
<g style="mix-blend-mode:color-dodge">
<g style="mix-blend-mode:screen">
<path d="M318.281 108.686C318.256 108.315 317.923 108.031 317.554 108.068C317.184 108.093 316.901 108.426 316.938 108.797C316.962 109.167 317.295 109.451 317.665 109.414C318.034 109.389 318.318 109.056 318.281 108.686Z" fill="#8FBFEF"/>
</g>
</g>
<g style="mix-blend-mode:color-dodge">
<g style="mix-blend-mode:screen">
<path d="M319.02 100.735C318.995 100.464 318.761 100.254 318.49 100.279C318.219 100.303 318.01 100.538 318.034 100.81C318.059 101.081 318.293 101.291 318.564 101.266C318.835 101.242 319.045 101.007 319.02 100.735Z" fill="#8FBFEF"/>
</g>
</g>
</g>
<g style="mix-blend-mode:color-dodge">
<g style="mix-blend-mode:color-dodge">
<g style="mix-blend-mode:screen">
<path d="M185.73 181.942C185.693 181.46 185.274 181.102 184.794 181.139C184.313 181.176 183.956 181.596 183.993 182.077C184.03 182.559 184.449 182.917 184.929 182.88C185.41 182.843 185.767 182.423 185.73 181.942Z" fill="#8FBFEF"/>
</g>
</g>
<g style="mix-blend-mode:color-dodge">
<g style="mix-blend-mode:screen">
<path d="M178.831 175.016C178.794 174.535 178.375 174.177 177.894 174.214C177.414 174.251 177.056 174.67 177.093 175.152C177.13 175.633 177.549 175.991 178.03 175.954C178.51 175.917 178.868 175.497 178.831 175.016Z" fill="#8FBFEF"/>
</g>
</g>
<g style="mix-blend-mode:color-dodge">
<g style="mix-blend-mode:screen">
<path d="M178.35 158.153C178.326 157.844 178.054 157.609 177.734 157.634C177.426 157.659 177.192 157.93 177.217 158.251C177.241 158.56 177.512 158.794 177.833 158.77C178.153 158.745 178.375 158.474 178.35 158.153Z" fill="#8FBFEF"/>
</g>
</g>
<g style="mix-blend-mode:color-dodge">
<g style="mix-blend-mode:screen">
<path d="M179.373 155.955C179.336 155.548 178.991 155.251 178.584 155.289C178.178 155.326 177.882 155.671 177.919 156.079C177.956 156.486 178.301 156.782 178.708 156.745C179.114 156.708 179.41 156.363 179.373 155.955Z" fill="#8FBFEF"/>
</g>
</g>
</g>
<g style="mix-blend-mode:color-dodge">
<g style="mix-blend-mode:color-dodge">
<g style="mix-blend-mode:screen">
<path d="M151.392 214.335C151.355 213.915 150.985 213.594 150.567 213.619C150.148 213.656 149.827 214.027 149.852 214.446C149.889 214.866 150.258 215.187 150.677 215.162C151.096 215.125 151.417 214.755 151.392 214.335Z" fill="#8FBFEF"/>
</g>
</g>
<g style="mix-blend-mode:color-dodge">
<g style="mix-blend-mode:screen">
<path d="M157.059 207.718C157.022 207.261 156.628 206.916 156.172 206.953C155.716 206.99 155.371 207.385 155.408 207.842C155.445 208.298 155.839 208.644 156.295 208.607C156.751 208.57 157.096 208.175 157.059 207.718Z" fill="#8FBFEF"/>
</g>
</g>
<g style="mix-blend-mode:color-dodge">
<g style="mix-blend-mode:screen">
<path d="M158.772 205.508C158.748 205.15 158.427 204.879 158.07 204.903C157.713 204.928 157.442 205.249 157.466 205.607C157.491 205.965 157.811 206.237 158.169 206.212C158.526 206.187 158.797 205.866 158.772 205.508Z" fill="#8FBFEF"/>
</g>
</g>
</g>
<g style="mix-blend-mode:color-dodge">
<g style="mix-blend-mode:color-dodge">
<g style="mix-blend-mode:screen">
<path d="M179.139 247.531C179.114 247.272 178.893 247.087 178.634 247.099C178.375 247.124 178.19 247.346 178.203 247.605C178.215 247.864 178.449 248.05 178.708 248.037C178.967 248.013 179.151 247.79 179.139 247.531Z" fill="#8FBFEF"/>
</g>
</g>
<g style="mix-blend-mode:color-dodge">
<g style="mix-blend-mode:screen">
<path d="M183.821 245.383C183.796 245.087 183.538 244.852 183.23 244.877C182.934 244.902 182.7 245.161 182.724 245.47C182.749 245.766 183.008 246 183.316 245.976C183.612 245.951 183.846 245.692 183.821 245.383Z" fill="#8FBFEF"/>
</g>
</g>
<g style="mix-blend-mode:color-dodge">
<g style="mix-blend-mode:screen">
<path d="M189.957 227.409C189.932 227.026 189.599 226.742 189.217 226.767C188.835 226.791 188.552 227.125 188.577 227.507C188.601 227.89 188.934 228.174 189.316 228.149C189.698 228.125 189.981 227.791 189.957 227.409Z" fill="#8FBFEF"/>
</g>
</g>
<g style="mix-blend-mode:color-dodge">
<g style="mix-blend-mode:screen">
<path d="M200.91 222.397C200.898 222.162 200.689 221.989 200.454 222.001C200.22 222.014 200.048 222.224 200.06 222.458C200.073 222.693 200.282 222.866 200.516 222.853C200.75 222.841 200.923 222.631 200.91 222.397Z" fill="#8FBFEF"/>
</g>
</g>
</g>
<g style="mix-blend-mode:color-dodge">
<g style="mix-blend-mode:color-dodge">
<g style="mix-blend-mode:screen">
<path d="M217.716 232.273C217.691 231.89 217.346 231.606 216.964 231.631C216.582 231.655 216.299 232.001 216.324 232.384C216.348 232.766 216.693 233.05 217.075 233.026C217.457 233.001 217.741 232.655 217.716 232.273Z" fill="#8FBFEF"/>
</g>
</g>
<g style="mix-blend-mode:color-dodge">
<g style="mix-blend-mode:screen">
<path d="M193.665 217.483C193.641 217.137 193.333 216.866 192.988 216.903C192.643 216.928 192.372 217.236 192.409 217.582C192.433 217.928 192.741 218.199 193.086 218.162C193.431 218.137 193.702 217.829 193.665 217.483Z" fill="#8FBFEF"/>
</g>
</g>
<g style="mix-blend-mode:color-dodge">
<g style="mix-blend-mode:screen">
<path d="M218.468 223.606C218.443 223.248 218.135 222.989 217.778 223.014C217.42 223.038 217.162 223.347 217.186 223.705C217.211 224.063 217.519 224.322 217.876 224.298C218.233 224.273 218.492 223.964 218.468 223.606Z" fill="#8FBFEF"/>
</g>
</g>
</g>
<g style="mix-blend-mode:color-dodge">
<g style="mix-blend-mode:color-dodge">
<g style="mix-blend-mode:screen">
<path d="M291.212 177.226C291.187 176.892 290.904 176.658 290.571 176.683C290.239 176.707 290.004 176.991 290.029 177.324C290.054 177.658 290.337 177.892 290.67 177.868C291.003 177.843 291.237 177.559 291.212 177.226Z" fill="#8FBFEF"/>
</g>
</g>
<g style="mix-blend-mode:color-dodge">
<g style="mix-blend-mode:screen">
<path d="M272.951 160.288C272.939 160.066 272.741 159.906 272.52 159.918C272.298 159.93 272.138 160.128 272.15 160.35C272.162 160.572 272.36 160.733 272.581 160.72C272.803 160.708 272.963 160.51 272.951 160.288Z" fill="#8FBFEF"/>
</g>
</g>
<g style="mix-blend-mode:color-dodge">
<g style="mix-blend-mode:screen">
<path d="M273.074 181.139C273.037 180.695 272.655 180.361 272.212 180.398C271.768 180.435 271.436 180.818 271.473 181.263C271.509 181.707 271.891 182.04 272.335 182.003C272.779 181.966 273.111 181.584 273.074 181.139Z" fill="#8FBFEF"/>
</g>
</g>
<g style="mix-blend-mode:color-dodge">
<g style="mix-blend-mode:screen">
<path d="M249.048 171.263C249.023 170.979 248.777 170.769 248.494 170.794C248.21 170.819 248.001 171.066 248.025 171.349C248.05 171.633 248.296 171.843 248.58 171.819C248.863 171.794 249.073 171.547 249.048 171.263Z" fill="#8FBFEF"/>
</g>
</g>
<g style="mix-blend-mode:color-dodge">
<g style="mix-blend-mode:screen">
<path d="M243.024 175.497C242.999 175.152 242.703 174.893 242.358 174.93C242.013 174.954 241.755 175.251 241.792 175.596C241.816 175.942 242.112 176.201 242.457 176.164C242.802 176.139 243.061 175.843 243.024 175.497Z" fill="#8FBFEF"/>
</g>
</g>
<g style="mix-blend-mode:color-dodge">
<g style="mix-blend-mode:screen">
<path d="M239.044 191.065C239.007 190.62 238.625 190.287 238.182 190.324C237.738 190.361 237.405 190.744 237.442 191.188C237.479 191.633 237.861 191.966 238.305 191.929C238.748 191.892 239.081 191.509 239.044 191.065Z" fill="#8FBFEF"/>
</g>
</g>
<g style="mix-blend-mode:color-dodge">
<g style="mix-blend-mode:screen">
<path d="M240.412 203.953C240.375 203.521 239.993 203.188 239.562 203.225C239.131 203.262 238.798 203.644 238.835 204.076C238.872 204.508 239.254 204.842 239.685 204.805C240.116 204.768 240.449 204.385 240.412 203.953Z" fill="#8FBFEF"/>
</g>
</g>
<g style="mix-blend-mode:color-dodge">
<g style="mix-blend-mode:screen">
<path d="M232.958 204.965C232.921 204.57 232.588 204.286 232.194 204.311C231.799 204.336 231.516 204.681 231.541 205.076C231.565 205.471 231.91 205.755 232.304 205.731C232.699 205.706 232.982 205.36 232.958 204.965Z" fill="#8FBFEF"/>
</g>
</g>
</g>
<g style="mix-blend-mode:color-dodge">
<g style="mix-blend-mode:color-dodge">
<g style="mix-blend-mode:screen">
<path d="M314.523 238.754C314.498 238.42 314.203 238.174 313.882 238.198C313.55 238.223 313.303 238.519 313.328 238.84C313.353 239.174 313.648 239.42 313.969 239.396C314.301 239.371 314.548 239.075 314.523 238.754Z" fill="#8FBFEF"/>
</g>
</g>
<g style="mix-blend-mode:color-dodge">
<g style="mix-blend-mode:screen">
<path d="M306.144 239.927C306.119 239.581 305.811 239.322 305.466 239.346C305.121 239.371 304.863 239.68 304.887 240.025C304.912 240.371 305.22 240.63 305.565 240.606C305.91 240.581 306.169 240.272 306.144 239.927Z" fill="#8FBFEF"/>
</g>
</g>
<g style="mix-blend-mode:color-dodge">
<g style="mix-blend-mode:screen">
<path d="M295.376 239.68C295.351 239.433 295.141 239.248 294.895 239.26C294.649 239.285 294.464 239.494 294.476 239.741C294.501 239.988 294.71 240.173 294.957 240.161C295.203 240.149 295.388 239.927 295.376 239.68Z" fill="#8FBFEF"/>
</g>
</g>
<g style="mix-blend-mode:color-dodge">
<g style="mix-blend-mode:screen">
<path d="M286.886 238.655C286.874 238.433 286.677 238.26 286.455 238.285C286.233 238.297 286.061 238.495 286.085 238.717C286.098 238.939 286.295 239.112 286.517 239.087C286.738 239.075 286.911 238.877 286.886 238.655Z" fill="#8FBFEF"/>
</g>
</g>
</g>
<g style="mix-blend-mode:color-dodge">
<g style="mix-blend-mode:color-dodge">
<g style="mix-blend-mode:screen">
<path d="M373.861 247.864C373.824 247.395 373.405 247.037 372.937 247.074C372.469 247.111 372.111 247.531 372.148 248C372.185 248.469 372.604 248.827 373.072 248.79C373.54 248.753 373.898 248.334 373.861 247.864Z" fill="#8FBFEF"/>
</g>
</g>
<g style="mix-blend-mode:color-dodge">
<g style="mix-blend-mode:screen">
<path d="M383.877 242.593C383.84 242.198 383.495 241.89 383.101 241.927C382.707 241.964 382.399 242.309 382.436 242.704C382.473 243.099 382.818 243.408 383.212 243.371C383.606 243.334 383.914 242.988 383.877 242.593Z" fill="#8FBFEF"/>
</g>
</g>
<g style="mix-blend-mode:color-dodge">
<g style="mix-blend-mode:screen">
<path d="M374.501 219.236C374.476 218.866 374.143 218.594 373.774 218.619C373.404 218.644 373.133 218.977 373.158 219.347C373.182 219.718 373.515 219.989 373.885 219.965C374.254 219.94 374.525 219.607 374.501 219.236Z" fill="#8FBFEF"/>
</g>
</g>
</g>
<g style="mix-blend-mode:color-dodge">
<g style="mix-blend-mode:screen">
<path d="M405.637 186.546C405.6 186.077 405.193 185.732 404.725 185.769C404.257 185.806 403.912 186.213 403.949 186.682C403.986 187.151 404.393 187.497 404.861 187.46C405.329 187.423 405.674 187.015 405.637 186.546Z" fill="#8FBFEF"/>
</g>
</g>
<g style="mix-blend-mode:color-dodge">
<g style="mix-blend-mode:color-dodge">
<g style="mix-blend-mode:screen">
<path d="M188.196 166.448C188.171 166.103 187.863 165.844 187.518 165.868C187.173 165.893 186.914 166.202 186.939 166.547C186.964 166.893 187.272 167.152 187.617 167.127C187.962 167.103 188.22 166.794 188.196 166.448Z" fill="#8FBFEF"/>
</g>
</g>
<g style="mix-blend-mode:color-dodge">
<g style="mix-blend-mode:screen">
<path d="M191.867 151.758C191.842 151.375 191.51 151.091 191.128 151.128C190.746 151.153 190.462 151.486 190.499 151.869C190.524 152.252 190.857 152.536 191.239 152.499C191.621 152.474 191.904 152.141 191.867 151.758Z" fill="#8FBFEF"/>
</g>
</g>
<g style="mix-blend-mode:color-dodge">
<g style="mix-blend-mode:screen">
<path d="M190.745 131.981C190.708 131.524 190.314 131.191 189.871 131.228C189.415 131.265 189.082 131.66 189.119 132.104C189.156 132.561 189.55 132.894 189.994 132.857C190.45 132.82 190.782 132.425 190.745 131.981Z" fill="#8FBFEF"/>
</g>
</g>
</g>
<g style="mix-blend-mode:color-dodge">
<g style="mix-blend-mode:color-dodge">
<g style="mix-blend-mode:screen">
<path d="M137.494 137.141C137.47 136.882 137.248 136.684 136.989 136.709C136.73 136.734 136.533 136.956 136.558 137.215C136.582 137.475 136.804 137.672 137.063 137.647C137.322 137.623 137.519 137.4 137.494 137.141Z" fill="#8FBFEF"/>
</g>
</g>
<g style="mix-blend-mode:color-dodge">
<g style="mix-blend-mode:screen">
<path d="M136.423 128.71C136.386 128.265 136.004 127.932 135.56 127.969C135.117 128.006 134.784 128.389 134.821 128.833C134.858 129.277 135.24 129.611 135.684 129.574C136.127 129.537 136.46 129.154 136.423 128.71Z" fill="#8FBFEF"/>
</g>
</g>
<g style="mix-blend-mode:color-dodge">
<g style="mix-blend-mode:screen">
<path d="M119.74 123.228C119.715 122.932 119.456 122.722 119.173 122.747C118.877 122.771 118.668 123.031 118.692 123.315C118.717 123.611 118.976 123.821 119.259 123.796C119.543 123.771 119.764 123.512 119.74 123.228Z" fill="#8FBFEF"/>
</g>
</g>
<g style="mix-blend-mode:color-dodge">
<g style="mix-blend-mode:screen">
<path d="M109.821 120.204C109.784 119.772 109.414 119.463 108.995 119.488C108.564 119.525 108.256 119.895 108.281 120.315C108.318 120.747 108.687 121.056 109.106 121.031C109.537 120.994 109.845 120.623 109.821 120.204Z" fill="#8FBFEF"/>
</g>
</g>
<g style="mix-blend-mode:color-dodge">
<g style="mix-blend-mode:screen">
<path d="M99.4593 114.747C99.4347 114.463 99.1882 114.253 98.9049 114.266C98.6215 114.29 98.412 114.537 98.4243 114.821C98.4367 115.105 98.6954 115.315 98.9788 115.303C99.2622 115.29 99.4716 115.031 99.4593 114.747Z" fill="#8FBFEF"/>
</g>
</g>
<g style="mix-blend-mode:color-dodge">
<g style="mix-blend-mode:screen">
<path d="M85.3388 108.377C85.3265 108.155 85.1294 107.982 84.8953 107.994C84.6735 108.007 84.501 108.204 84.5133 108.439C84.5256 108.661 84.7228 108.834 84.9569 108.822C85.1787 108.809 85.3511 108.612 85.3388 108.377Z" fill="#8FBFEF"/>
</g>
</g>
</g>
<g style="mix-blend-mode:color-dodge">
<g style="mix-blend-mode:color-dodge">
<g style="mix-blend-mode:screen">
<path d="M300.403 72.7862C300.378 72.5393 300.169 72.3541 299.922 72.3664C299.676 72.3911 299.491 72.601 299.504 72.8479C299.528 73.0948 299.738 73.28 299.984 73.2676C300.23 73.2429 300.415 73.0331 300.403 72.7862Z" fill="#8FBFEF"/>
</g>
</g>
<g style="mix-blend-mode:color-dodge">
<g style="mix-blend-mode:screen">
<path d="M305.467 63.6137C305.43 63.1446 305.023 62.7866 304.555 62.8236C304.087 62.8607 303.729 63.268 303.766 63.7372C303.803 64.2063 304.21 64.5643 304.678 64.5272C305.146 64.4902 305.504 64.0828 305.467 63.6137Z" fill="#8FBFEF"/>
</g>
</g>
<g style="mix-blend-mode:color-dodge">
<g style="mix-blend-mode:screen">
<path d="M316.667 57.5523C316.63 57.1325 316.273 56.8239 315.854 56.8486C315.435 56.8856 315.127 57.2437 315.152 57.6634C315.189 58.0831 315.546 58.3918 315.965 58.3671C316.384 58.33 316.692 57.972 316.667 57.5523Z" fill="#8FBFEF"/>
</g>
</g>
<g style="mix-blend-mode:color-dodge">
<g style="mix-blend-mode:screen">
<path d="M323.259 67.7123C323.222 67.3049 322.865 66.9963 322.458 67.0333C322.051 67.0703 321.743 67.4283 321.78 67.8357C321.817 68.2431 322.175 68.5517 322.581 68.5147C322.988 68.4777 323.296 68.1197 323.259 67.7123Z" fill="#8FBFEF"/>
</g>
</g>
<g style="mix-blend-mode:color-dodge">
<g style="mix-blend-mode:screen">
<path d="M322.79 35.9977C322.778 35.7755 322.581 35.6027 322.346 35.615C322.125 35.6273 321.952 35.8372 321.964 36.0594C321.977 36.2816 322.174 36.4545 322.408 36.4421C322.63 36.4298 322.802 36.2323 322.79 35.9977Z" fill="#8FBFEF"/>
</g>
</g>
<g style="mix-blend-mode:color-dodge">
<g style="mix-blend-mode:screen">
<path d="M326.894 44.1331C326.857 43.664 326.45 43.3183 325.982 43.3554C325.514 43.3924 325.169 43.7998 325.206 44.2689C325.243 44.738 325.649 45.0837 326.118 45.0467C326.586 45.0096 326.931 44.6022 326.894 44.1331Z" fill="#8FBFEF"/>
</g>
</g>
</g>
<g style="mix-blend-mode:color-dodge">
<g style="mix-blend-mode:color-dodge">
<g style="mix-blend-mode:screen">
<path d="M207.318 90.4149C207.293 90.094 207.01 89.8471 206.689 89.8718C206.369 89.8964 206.123 90.1804 206.147 90.5014C206.172 90.8223 206.455 91.0692 206.776 91.0445C207.096 91.0199 207.342 90.7359 207.318 90.4149Z" fill="#8FBFEF"/>
</g>
</g>
<g style="mix-blend-mode:color-dodge">
<g style="mix-blend-mode:screen">
<path d="M212.726 90.2668C212.701 90.0199 212.492 89.8471 212.258 89.8594C212.011 89.8841 211.839 90.094 211.851 90.3286C211.876 90.5755 212.085 90.7483 212.319 90.7359C212.566 90.7113 212.738 90.5014 212.726 90.2668Z" fill="#8FBFEF"/>
</g>
</g>
<g style="mix-blend-mode:color-dodge">
<g style="mix-blend-mode:screen">
<path d="M219.417 74.6379C219.404 74.4034 219.195 74.2305 218.973 74.2552C218.739 74.2676 218.567 74.4774 218.591 74.6996C218.604 74.9342 218.813 75.107 219.035 75.0823C219.269 75.07 219.441 74.8601 219.417 74.6379Z" fill="#8FBFEF"/>
</g>
</g>
<g style="mix-blend-mode:color-dodge">
<g style="mix-blend-mode:screen">
<path d="M226.194 94.995C226.169 94.7481 225.959 94.5629 225.701 94.5753C225.454 94.6 225.27 94.8098 225.282 95.0691C225.306 95.316 225.516 95.5012 225.775 95.4888C226.033 95.4765 226.206 95.2543 226.194 94.995Z" fill="#8FBFEF"/>
</g>
</g>
</g>
</svg>
