<svg width="154" height="44" viewBox="0 0 154 44" fill="none" xmlns="http://www.w3.org/2000/svg">
<g clip-path="url(#clip0_683_13532)">
<path d="M87.1358 14.8037C87.1358 10.1345 87.2126 5.78736 87.443 1.76221L75.6903 4.0968V5.22384L76.8425 5.38485C77.6875 5.46535 78.2252 5.78736 78.5325 6.27038C78.8397 6.83391 79.0702 7.63894 79.2238 8.84648C79.3774 11.1811 79.5311 16.4943 79.4542 24.8666C79.4542 33.1584 79.3774 38.3911 79.2238 40.4037C83.4486 41.3698 86.7517 41.7723 89.2098 41.7723C93.8187 41.7723 97.4291 40.4037 100.041 37.5861C102.653 34.849 104.035 30.9849 104.035 26.2352C104.035 22.4515 103.037 19.3119 101.039 16.8163C99.0422 14.3207 96.5073 13.1132 93.5115 13.1132C91.5143 13.1132 89.4403 13.6767 87.1358 14.8037ZM87.3662 39.5987C87.2126 37.0226 87.059 29.2943 87.059 16.6553C87.7503 16.4138 88.6721 16.2528 89.8243 16.2528C91.6679 16.2528 93.1274 17.2188 94.2028 19.2314C95.2782 21.244 95.8159 23.6591 95.8159 26.7182C95.8159 30.5018 95.2014 33.561 93.9724 36.1371C92.7433 38.6327 91.207 39.9207 89.2866 39.9207C88.6721 39.7597 88.0576 39.6792 87.3662 39.5987ZM31.5982 2.56724H0.87207V4.1773L2.48519 4.33831C3.71424 4.57982 4.55921 5.06284 5.09692 5.78736C5.63463 6.5924 5.94189 7.88045 6.0187 9.65152C6.63323 18.3459 6.63323 26.4767 6.0187 33.9635C5.86507 35.7345 5.55781 37.0226 5.09692 37.8276C4.55921 38.6327 3.71424 39.1157 2.48519 39.2767L0.87207 39.5182V41.1283H20.6904V39.5182L18.6164 39.3572C17.3874 39.1962 16.5424 38.6327 16.0047 37.9081C15.467 37.1031 15.1597 35.815 15.0829 34.044C14.8525 30.8238 14.6988 27.1207 14.6988 23.015L18.8469 23.0955C21.0745 23.176 22.6108 24.9471 23.379 28.4893H24.9153V15.3672H23.379C22.6108 18.8289 21.1513 20.5999 18.8469 20.6804L14.6988 20.761C14.6988 13.5157 14.8525 8.36347 15.0829 5.22384H21.1513C25.453 5.22384 28.372 8.12196 30.0619 13.9182L31.9055 13.3547L31.5982 2.56724ZM27.9879 27.3622C27.9879 31.5484 29.1401 35.01 31.3678 37.7471C33.5954 40.4842 36.8985 41.7723 41.0465 41.7723C45.1946 41.7723 48.5744 40.4037 51.0325 37.5861C53.4906 34.849 54.6429 31.3874 54.6429 27.2012C54.6429 23.015 53.4906 19.5534 51.263 16.8163C49.0353 14.0792 45.7323 12.7911 41.5842 12.7911C37.4362 12.7911 34.0563 14.1597 31.5982 16.9773C29.1401 19.7144 27.9879 23.176 27.9879 27.3622ZM45.1178 18.1849C46.0395 20.5194 46.4236 23.5786 46.4236 27.2817C46.4236 35.815 44.7337 40.0012 41.4306 40.0012C39.7407 40.0012 38.4348 38.7937 37.513 36.3786C36.5912 33.9635 36.2072 30.9043 36.2072 27.2817C36.2072 18.8289 37.8971 14.6427 41.2002 14.6427C42.8901 14.5622 44.196 15.7698 45.1178 18.1849ZM110.027 37.7471C112.562 40.4037 115.788 41.7723 119.629 41.7723C122.01 41.7723 124.084 41.2893 125.928 40.2427C127.771 39.2767 129.231 38.0691 130.229 36.6201L129.461 35.654C127.771 37.0226 125.851 37.6666 123.623 37.6666C120.55 37.6666 118.169 36.6201 116.556 34.4465C114.866 32.2729 114.098 29.5358 114.252 25.9937H130.69C130.69 22.1295 129.768 18.9899 127.848 16.4943C125.928 14.0792 123.239 12.8716 119.782 12.8716C115.481 12.8716 112.178 14.3207 109.796 17.1383C107.415 19.9559 106.263 23.4176 106.263 27.5232C106.263 31.7094 107.492 35.0905 110.027 37.7471ZM115.711 17.5408C116.556 15.6087 117.632 14.6427 119.091 14.6427C121.395 14.6427 122.548 17.7018 122.548 23.9006L114.405 24.0616C114.482 21.6465 114.866 19.4729 115.711 17.5408ZM151.353 14.3207C149.279 13.3547 146.668 12.7911 143.518 12.7911C140.292 12.7911 137.757 13.6767 135.837 15.3672C133.916 17.0578 132.918 19.1509 132.918 21.6465C132.918 23.8201 133.532 25.5106 134.685 26.7182C135.837 27.9257 137.68 28.9723 140.062 29.8578C142.212 30.6628 143.749 31.4679 144.517 32.1924C145.285 32.9974 145.746 33.883 145.746 35.0905C145.746 36.2176 145.362 37.2641 144.517 38.0691C143.749 38.9547 142.673 39.3572 141.291 39.3572C137.911 39.3572 135.376 36.7811 133.609 31.6289L132.303 32.0314L132.611 40.0817C135.376 41.2088 138.448 41.7723 141.828 41.7723C145.362 41.7723 148.05 40.9672 150.048 39.2767C152.045 37.6666 153.043 35.332 153.043 32.4339C153.043 30.5018 152.583 28.8918 151.584 27.6842C150.585 26.4767 148.972 25.4301 146.668 24.4641C144.133 23.4981 142.366 22.6125 141.444 21.8075C140.523 21.0025 140.062 20.0364 140.062 18.8289C140.062 17.6213 140.369 16.6553 141.06 15.8503C141.752 15.0452 142.597 14.7232 143.672 14.7232C146.745 14.7232 148.972 17.0578 150.355 21.6465L151.661 21.244L151.353 14.3207ZM77.457 13.5962C76.3816 13.0326 75.2294 12.7911 73.9235 12.7911C72.6177 12.7911 71.3118 13.3547 69.8523 14.4817C68.3928 15.6087 67.3174 17.1383 66.4724 19.2314L66.5493 12.7911L54.8733 15.2062V16.3333L56.0255 16.4138C57.485 16.5748 58.33 17.7823 58.4836 19.9559C58.9445 24.9471 58.9445 30.2603 58.4836 35.8955C58.33 38.0691 57.485 39.1962 56.0255 39.4377L54.8733 39.5987V41.1283H71.1582V39.5987L69.0842 39.4377C67.6247 39.2767 66.7797 38.0691 66.6261 35.8955C66.1652 31.2264 66.0884 26.2352 66.4724 21.083C66.9333 20.2779 67.9319 19.7949 69.4682 19.6339C71.0046 19.4729 72.7713 19.9559 74.6149 21.083L77.457 13.5962Z" fill="#DFF3F9"/>
</g>
<defs>
<clipPath id="clip0_683_13532">
<rect width="153.631" height="43.4717" fill="white" transform="translate(0.103516 0.152344)"/>
</clipPath>
</defs>
</svg>
