<svg width="155" height="33" viewBox="0 0 155 33" fill="none" xmlns="http://www.w3.org/2000/svg">
<g clip-path="url(#clip0_683_13529)">
<path d="M10.2101 31.6305H4.42692V16.544H0.487305V11.6322H4.42676V8.13706C4.42676 3.99533 6.16919 1.0249 11.9367 1.0249C13.1566 1.0249 15.0716 1.28219 15.0716 1.28219V5.84311H13.0602C11.0106 5.84311 10.2104 6.4955 10.2104 8.29911V11.6322H14.9949L14.5689 16.544H10.2102L10.2101 31.6305ZM23.4797 11.2397C23.3955 11.2397 23.3088 11.2429 23.223 11.2451C17.8605 11.2451 15.407 15.4662 15.407 21.4581C15.407 29.0063 18.5895 32.0274 23.2649 32.0274C25.9398 32.0274 27.6973 30.8491 28.7655 28.6504V31.6326H34.2661V11.6343H28.7655V14.7097C27.8933 12.7311 26.0867 11.2631 23.4797 11.2397ZM24.8784 15.9652C27.1307 15.9652 28.4825 17.6092 28.4825 20.4055L28.4877 23.2616C28.4877 25.1463 27.3712 27.3513 24.8784 27.3513C21.0461 27.3513 21.1484 23.021 21.1484 21.5787C21.1484 16.7273 23.1903 15.9652 24.8784 15.9652ZM36.4876 21.6345C36.4876 19.2043 36.3765 11.2527 46.2764 11.2527C50.2503 11.2527 51.9097 12.575 51.9097 12.575L50.576 16.9038C50.576 16.9038 48.9188 15.9488 46.7593 15.9488C43.9935 15.9488 42.2287 17.6267 42.2287 20.5788L42.2318 22.6956C42.2318 25.5322 43.9346 27.4258 46.765 27.4258C48.7323 27.4258 50.5455 26.4618 50.5455 26.4618L51.8758 30.7003C51.8758 30.7003 50.3585 32.0309 46.3041 32.0309C36.8779 32.0309 36.4877 24.8967 36.4877 21.6345H36.4876ZM84.1619 11.2451C89.5246 11.2451 92.0168 15.4662 92.0168 21.4581C92.0168 29.0063 88.8341 32.0274 84.1587 32.0274C81.4838 32.0274 79.5064 30.8493 78.4382 28.6504V31.6326L73.0067 31.6303V1.63296L78.7735 1.10665V14.4388C79.6058 12.1063 82.3411 11.2451 84.1621 11.2451H84.1619ZM82.5452 15.9652C80.2929 15.9652 78.7735 17.6092 78.7735 20.4055L78.7681 23.2616C78.7648 25.1463 79.8204 27.3513 82.5452 27.3513C86.3775 27.3513 86.2752 23.021 86.2752 21.5787C86.2752 16.7273 84.2335 15.9652 82.5452 15.9652ZM61.9156 11.2617C55.8332 11.2617 52.6222 14.7319 52.6222 20.8989V22.0447C52.6222 30.0488 57.1315 32.1096 62.5075 32.1096C67.733 32.1096 70.0982 30.5801 70.0982 30.5801L69.0191 26.5071C69.0191 26.5071 66.2369 27.7459 63.1989 27.7459C60.0496 27.7459 58.6951 26.9059 58.348 23.7387H70.5592V20.4712C70.5592 13.7816 66.9554 11.2615 61.9154 11.2615L61.9156 11.2617ZM62.0621 15.3401C64.1675 15.3401 65.5318 16.6912 65.4569 19.8244H58.3586C58.4816 16.5267 59.9529 15.3403 62.0621 15.3403V15.3401ZM103.515 11.2342C97.2694 11.2342 93.9811 14.9176 93.9811 21.5184C93.9811 30.575 99.6493 32.0328 103.526 32.0328C109.201 32.0328 112.976 28.8356 112.976 21.6006C112.976 14.0702 108.731 11.2342 103.515 11.2342ZM103.437 15.9816C106.183 15.9816 107.272 18.1326 107.272 20.5811V22.6861C107.272 25.6522 105.749 27.3678 103.426 27.3678C101.254 27.3678 99.7279 25.763 99.7279 22.6861V20.5811C99.7279 17.2995 101.544 15.9816 103.437 15.9816ZM124.465 11.2342C118.219 11.2342 114.93 14.9176 114.93 21.5184C114.93 30.575 120.599 32.0328 124.475 32.0328C130.15 32.0328 133.926 28.8356 133.926 21.6006C133.926 14.0702 129.68 11.2342 124.465 11.2342ZM124.386 15.9816C127.133 15.9816 128.221 18.1326 128.221 20.5811V22.6861C128.221 25.6522 126.698 27.3678 124.376 27.3678C122.204 27.3678 120.677 25.763 120.677 22.6861V20.5811C120.677 17.2995 122.494 15.9816 124.386 15.9816ZM136.105 31.6305V1.63296L141.888 1.10665V21.2129L147.626 11.6322H153.734L147.749 21.555L153.965 31.6305H147.84L141.888 21.8473V31.6305H136.105Z" fill="#DFF3F9"/>
</g>
<defs>
<clipPath id="clip0_683_13529">
<rect width="153.631" height="31.2453" fill="white" transform="translate(0.410156 0.944824)"/>
</clipPath>
</defs>
</svg>
