<svg width="310" height="92" viewBox="0 0 310 92" fill="none" xmlns="http://www.w3.org/2000/svg">
<mask id="mask0_582_5067" style="mask-type:alpha" maskUnits="userSpaceOnUse" x="0" y="0" width="93" height="92">
<path fill-rule="evenodd" clip-rule="evenodd" d="M46.0161 91.672C71.4301 91.672 92.0322 71.1505 92.0322 45.836C92.0322 20.5215 71.4301 0 46.0161 0C20.6021 0 0 20.5215 0 45.836C0 71.1505 20.6021 91.672 46.0161 91.672ZM70.1132 45.776C70.1132 58.9803 59.409 69.6844 46.2047 69.6844C33.0005 69.6844 22.2963 58.9803 22.2963 45.776C22.2963 32.5717 33.0005 21.8675 46.2047 21.8675C59.409 21.8675 70.1132 32.5717 70.1132 45.776Z" fill="#D9D9D9"/>
</mask>
<g mask="url(#mask0_582_5067)">
<path d="M46.0161 91.672C71.4301 91.672 92.0322 71.1505 92.0322 45.836C92.0322 20.5215 71.4301 0 46.0161 0C20.6021 0 0 20.5215 0 45.836C0 71.1505 20.6021 91.672 46.0161 91.672Z" fill="url(#paint0_linear_582_5067)"/>
<path d="M67.6689 44.6313C67.9991 45.1244 72.1754 51.1144 79.8161 51.1273L67.6689 44.6313Z" fill="url(#paint1_radial_582_5067)"/>
<path style="mix-blend-mode:multiply" d="M88.4178 31.1297C84.0229 30.2722 79.0663 48.0149 72.3688 47.286C70.8895 47.123 69.7704 46.1068 69.0501 45.2664C69.1758 46.2936 69.196 47.3309 69.1101 48.3622C68.9086 50.8233 68.2912 51.4193 68.6299 52.5127C69.0372 53.799 70.3879 54.4293 72.879 55.5141C74.8943 56.3717 76.4679 57.0706 78.7747 57.3364C83.0624 57.8338 87.3502 56.6075 89.4941 54.6652C90.3516 53.902 91.3078 52.6113 91.5779 51.5823C91.6825 51.158 91.7655 50.7287 91.8266 50.296C91.8266 50.1931 91.8823 49.8672 91.9209 49.1468C91.9681 48.3493 91.9681 47.7405 91.9681 47.599C91.9681 46.7414 91.9681 44.3188 91.9467 43.6028C91.9209 43.0454 91.4922 31.7172 88.4178 31.1297Z" fill="url(#paint2_radial_582_5067)"/>
<path d="M69.0674 46.6469C73.4023 51.685 79.5595 53.6188 84.216 51.6722C89.6057 49.4297 90.9735 42.3206 91.0764 41.8104C91.2645 40.7926 91.3449 39.7578 91.3165 38.7232C91.1922 30.3878 86.3856 23.4374 84.2117 20.333C81.8672 17.0051 79.1193 13.9806 76.0307 11.3288C73.2094 8.9405 65.2685 2.39311 52.8769 0.609413C44.7261 -0.505361 36.4255 0.619657 28.8655 3.86381C20.7203 7.1841 13.7179 12.8039 8.7131 20.0372C5.77536 24.2285 3.54607 28.874 2.11426 33.788" fill="url(#paint3_linear_582_5067)"/>
</g>
<path d="M105.377 62.636V12.6553H118.369L142.365 43.2137V12.6553H155.291V62.636H142.365L118.369 32.0775V62.636H105.377Z" fill="#026AA1"/>
<path d="M194.211 23.659H178.766V32.0112H193.349V43.0149H178.766V51.6322H194.211V62.636H165.774V12.6553H194.211V23.659Z" fill="#026AA1"/>
<path d="M216.57 52.5603H219.421C222.691 52.5603 225.033 52.1404 226.447 51.3008C227.861 50.4612 228.568 49.1133 228.568 47.2573C228.568 45.4012 227.861 44.0534 226.447 43.2137C225.033 42.3741 222.691 41.9543 219.421 41.9543H216.57V52.5603ZM216.57 32.2763H218.957C223.022 32.2763 225.055 30.6633 225.055 27.4374C225.055 24.2114 223.022 22.5984 218.957 22.5984H216.57V32.2763ZM203.578 12.6553H222.934C227.53 12.6553 231.021 13.7601 233.407 15.9696C235.794 18.1792 236.987 21.361 236.987 25.515C236.987 28.0339 236.523 30.133 235.595 31.8123C234.711 33.4474 233.341 34.8394 231.485 35.9884C233.341 36.342 234.91 36.8944 236.191 37.6456C237.517 38.3527 238.578 39.2365 239.373 40.2971C240.213 41.3577 240.809 42.5509 241.163 43.8766C241.517 45.2024 241.693 46.6165 241.693 48.119C241.693 50.4612 241.273 52.5382 240.434 54.35C239.638 56.1619 238.489 57.6865 236.987 58.9239C235.529 60.1612 233.739 61.0892 231.618 61.7079C229.496 62.3266 227.11 62.636 224.459 62.636H203.578V12.6553Z" fill="#026AA1"/>
<path d="M262.467 12.6553V62.636H249.474V12.6553H262.467Z" fill="#026AA1"/>
<path d="M291.866 23.659V62.636H278.874V23.659H268.202V12.6553H302.538V23.659H291.866Z" fill="#026AA1"/>
<path d="M201.871 66.4795L206.44 79.4353H206.62L211.189 66.4795H213.143L207.492 81.8701H205.568L199.917 66.4795H201.871Z" fill="#026AA1"/>
<path d="M215.541 81.8701V66.4795H224.829V68.1328H217.404V73.3331H224.348V74.9864H217.404V80.2168H224.949V81.8701H215.541Z" fill="#026AA1"/>
<path d="M240.393 66.4795V81.8701H238.589L230.202 69.786H230.052V81.8701H228.188V66.4795H229.992L238.409 78.5936H238.559V66.4795H240.393Z" fill="#026AA1"/>
<path d="M243.28 68.1328V66.4795H254.823V68.1328H249.984V81.8701H248.12V68.1328H243.28Z" fill="#026AA1"/>
<path d="M267.8 66.4795H269.663V76.6698C269.663 77.7219 269.415 78.6612 268.919 79.4879C268.428 80.3095 267.735 80.9583 266.838 81.4342C265.941 81.9052 264.889 82.1407 263.681 82.1407C262.474 82.1407 261.422 81.9052 260.525 81.4342C259.628 80.9583 258.932 80.3095 258.436 79.4879C257.945 78.6612 257.7 77.7219 257.7 76.6698V66.4795H259.563V76.5195C259.563 77.271 259.729 77.9398 260.059 78.526C260.39 79.1071 260.861 79.5655 261.472 79.9012C262.088 80.2319 262.825 80.3972 263.681 80.3972C264.538 80.3972 265.275 80.2319 265.891 79.9012C266.507 79.5655 266.978 79.1071 267.304 78.526C267.634 77.9398 267.8 77.271 267.8 76.5195V66.4795Z" fill="#026AA1"/>
<path d="M273.385 81.8701V66.4795H278.586C279.788 66.4795 280.775 66.6849 281.546 67.0957C282.318 67.5015 282.889 68.0601 283.26 68.7715C283.631 69.4829 283.816 70.2921 283.816 71.1989C283.816 72.1057 283.631 72.9098 283.26 73.6112C282.889 74.3126 282.32 74.8637 281.554 75.2645C280.787 75.6602 279.808 75.8581 278.616 75.8581H274.407V74.1748H278.555C279.377 74.1748 280.038 74.0545 280.539 73.8141C281.045 73.5736 281.411 73.2329 281.637 72.792C281.867 72.3461 281.982 71.8151 281.982 71.1989C281.982 70.5826 281.867 70.0441 281.637 69.5831C281.406 69.1222 281.038 68.7665 280.532 68.516C280.026 68.2605 279.357 68.1328 278.525 68.1328H275.249V81.8701H273.385ZM280.63 74.9563L284.417 81.8701H282.253L278.525 74.9563H280.63Z" fill="#026AA1"/>
<path d="M286.922 81.8701V66.4795H296.21V68.1328H288.785V73.3331H295.729V74.9864H288.785V80.2168H296.33V81.8701H286.922Z" fill="#026AA1"/>
<path d="M307.986 70.3271C307.896 69.5656 307.53 68.9744 306.889 68.5536C306.248 68.1328 305.461 67.9223 304.529 67.9223C303.848 67.9223 303.252 68.0326 302.741 68.253C302.235 68.4734 301.839 68.7765 301.553 69.1623C301.273 69.5481 301.132 69.9864 301.132 70.4774C301.132 70.8882 301.23 71.2414 301.425 71.537C301.626 71.8276 301.881 72.0706 302.192 72.266C302.503 72.4564 302.828 72.6142 303.169 72.7394C303.51 72.8597 303.823 72.9574 304.108 73.0325L305.671 73.4534C306.072 73.5586 306.518 73.7039 307.009 73.8892C307.505 74.0746 307.978 74.3276 308.429 74.6482C308.885 74.9639 309.261 75.3697 309.557 75.8657C309.852 76.3616 310 76.9704 310 77.6918C310 78.5234 309.782 79.2749 309.346 79.9463C308.915 80.6176 308.284 81.1512 307.452 81.547C306.626 81.9428 305.621 82.1407 304.439 82.1407C303.337 82.1407 302.382 81.9628 301.576 81.6071C300.774 81.2514 300.143 80.7554 299.682 80.1191C299.226 79.4829 298.968 78.7439 298.908 77.9022H300.832C300.882 78.4834 301.077 78.9643 301.418 79.3451C301.764 79.7208 302.199 80.0014 302.725 80.1868C303.257 80.3671 303.828 80.4573 304.439 80.4573C305.15 80.4573 305.789 80.3421 306.355 80.1116C306.921 79.8761 307.37 79.5505 307.7 79.1347C308.031 78.7138 308.196 78.2229 308.196 77.6617C308.196 77.1507 308.054 76.7349 307.768 76.4142C307.482 76.0936 307.107 75.8331 306.641 75.6327C306.175 75.4323 305.671 75.2569 305.13 75.1066L303.237 74.5656C302.034 74.2199 301.082 73.7264 300.381 73.0851C299.679 72.4438 299.329 71.6047 299.329 70.5676C299.329 69.7059 299.562 68.9544 300.028 68.3131C300.499 67.6668 301.13 67.1658 301.921 66.8101C302.718 66.4494 303.607 66.269 304.589 66.269C305.581 66.269 306.463 66.4469 307.234 66.8026C308.006 67.1533 308.617 67.6343 309.068 68.2455C309.524 68.8567 309.765 69.5506 309.79 70.3271H307.986Z" fill="#026AA1"/>
<defs>
<linearGradient id="paint0_linear_582_5067" x1="80.6825" y1="5.67269" x2="68.531" y2="19.7494" gradientUnits="userSpaceOnUse">
<stop stop-color="#24B1E6"/>
<stop offset="1" stop-color="#026AA1"/>
</linearGradient>
<radialGradient id="paint1_radial_582_5067" cx="0" cy="0" r="1" gradientUnits="userSpaceOnUse" gradientTransform="translate(73.7447 47.8815) scale(4.87088 4.87088)">
<stop stop-color="#24B1E6"/>
<stop offset="0.04" stop-color="#1EA5DA"/>
<stop offset="0.12" stop-color="#148FC5"/>
<stop offset="0.22" stop-color="#0C7EB5"/>
<stop offset="0.34" stop-color="#0673A9"/>
<stop offset="0.52" stop-color="#036CA3"/>
<stop offset="1" stop-color="#026AA1"/>
</radialGradient>
<radialGradient id="paint2_radial_582_5067" cx="0" cy="0" r="1" gradientUnits="userSpaceOnUse" gradientTransform="translate(80.1957 43.3738) rotate(16.2202) scale(15.6522 19.5545)">
<stop stop-color="#214192"/>
<stop offset="0.16" stop-color="#4963A6"/>
<stop offset="0.58" stop-color="#AAB6D5"/>
<stop offset="0.86" stop-color="#E7EBF3"/>
<stop offset="1" stop-color="white"/>
</radialGradient>
<linearGradient id="paint3_linear_582_5067" x1="73.274" y1="3.50158" x2="50.7946" y2="31.256" gradientUnits="userSpaceOnUse">
<stop stop-color="#24B1E6"/>
<stop offset="1" stop-color="#026AA1"/>
</linearGradient>
</defs>
</svg>
