<svg width="40" height="41" viewBox="0 0 40 41" fill="none" xmlns="http://www.w3.org/2000/svg">
<g clip-path="url(#clip0_295_409)">
<path d="M14.3615 33.3253H9.87957C9.15668 33.3253 8.57837 32.747 8.57837 32.0241V10.7711C8.57837 10.0482 9.15668 9.46988 9.87957 9.46988H12.9157" stroke="#DFF3F9" stroke-width="1.5" stroke-miterlimit="10" stroke-linecap="round" stroke-linejoin="round"/>
<path d="M23.759 9.46988H26.7952C27.5181 9.46988 28.0964 10.0482 28.0964 10.7711V18.1446" stroke="#DFF3F9" stroke-width="1.5" stroke-miterlimit="10" stroke-linecap="round" stroke-linejoin="round"/>
<path d="M22.3134 10.1928H14.3616V7.73493C14.3616 7.08433 14.8676 6.57831 15.5182 6.57831H21.0845C21.7351 6.57831 22.2411 7.08433 22.2411 7.73493V10.1928H22.3134Z" stroke="#DFF3F9" stroke-width="1.5" stroke-miterlimit="10" stroke-linecap="round" stroke-linejoin="round"/>
<path d="M16.5303 21.0361H24.4821" stroke="#DFF3F9" stroke-width="1.5" stroke-miterlimit="10" stroke-linecap="round" stroke-linejoin="round"/>
<path d="M16.5303 15.253H25.205" stroke="#DFF3F9" stroke-width="1.5" stroke-miterlimit="10" stroke-linecap="round" stroke-linejoin="round"/>
<path d="M16.5303 23.9277H21.5905" stroke="#DFF3F9" stroke-width="1.5" stroke-miterlimit="10" stroke-linecap="round" stroke-linejoin="round"/>
<path d="M16.5303 18.1446H23.0363" stroke="#DFF3F9" stroke-width="1.5" stroke-miterlimit="10" stroke-linecap="round" stroke-linejoin="round"/>
<path d="M11.47 21.6145L12.4097 22.6988L14.3615 20.8193" stroke="#DFF3F9" stroke-width="1.5" stroke-miterlimit="10" stroke-linecap="round" stroke-linejoin="round"/>
<path d="M11.5422 15.4699L12.482 16.4819L14.2892 14.6747" stroke="#DFF3F9" stroke-width="1.5" stroke-miterlimit="10" stroke-linecap="round" stroke-linejoin="round"/>
<path d="M18.8435 34.4096L17.976 34.6265C17.6869 34.3373 17.6146 34.265 17.3254 33.9759L17.5423 33.1084C17.7592 31.8795 18.4098 30.7952 19.2772 29.9277L28.3134 20.8916C29.1086 20.0964 30.3375 20.0964 31.1327 20.8916C31.4941 21.253 31.711 21.759 31.711 22.265C31.711 22.7711 31.4941 23.2771 31.1327 23.6385L22.0242 32.6747C21.1568 33.5422 20.0001 34.1928 18.8435 34.4096Z" stroke="#DFF3F9" stroke-width="1.5" stroke-miterlimit="10" stroke-linecap="round" stroke-linejoin="round"/>
<path d="M27.6628 21.3976L30.4821 24.2169" stroke="#DFF3F9" stroke-width="1.5" stroke-miterlimit="10" stroke-linecap="round" stroke-linejoin="round"/>
<path d="M22.7471 26.3132L25.5663 29.1325" stroke="#DFF3F9" stroke-width="1.5" stroke-miterlimit="10" stroke-linecap="round" stroke-linejoin="round"/>
<path d="M28.8194 25.9518L29.976 24.7952C30.3375 24.4337 30.9881 24.4337 31.4218 24.7952C31.7832 25.1566 31.7832 25.8072 31.4218 26.2409L27.1567 30.506" stroke="#DFF3F9" stroke-width="1.5" stroke-miterlimit="10" stroke-linecap="round" stroke-linejoin="round"/>
<path d="M17.6146 34.265L16.458 35.494" stroke="#DFF3F9" stroke-width="1.5" stroke-miterlimit="10" stroke-linecap="round" stroke-linejoin="round"/>
</g>
<defs>
<clipPath id="clip0_295_409">
<rect width="24.2169" height="30" fill="white" transform="translate(8 6)"/>
</clipPath>
</defs>
</svg>
