<svg width="41" height="41" viewBox="0 0 41 41" fill="none" xmlns="http://www.w3.org/2000/svg">
<g clip-path="url(#clip0_295_459)">
<path d="M8.4412 36C7.38393 36 6.5249 35.141 6.5249 34.0837V25.8899C6.5249 24.8326 7.38393 23.9736 8.4412 23.9736C9.49847 23.9736 10.3575 24.8326 10.3575 25.8899V34.0176C10.3575 35.141 9.49847 36 8.4412 36ZM8.4412 24.8987C7.91257 24.8987 7.45001 25.3612 7.45001 25.8899V34.0176C7.45001 34.5463 7.91257 35.0088 8.4412 35.0088C8.96984 35.0088 9.43239 34.5463 9.43239 34.0176V25.8899C9.43239 25.3612 8.96984 24.8987 8.4412 24.8987Z" fill="#DFF3F9"/>
<path d="M25.5559 25.4934C26.9435 25.4934 28.1329 24.4361 28.1329 23.0485C28.1329 21.6608 27.0096 20.6035 25.5559 20.6035C24.6307 20.6035 23.9039 19.9427 23.9039 19.0837C23.9039 18.2247 24.6307 17.5639 25.5559 17.5639C26.481 17.5639 27.2078 18.2247 27.2078 19.0837C27.2078 19.348 27.4061 19.5463 27.6704 19.5463C27.9347 19.5463 28.1329 19.348 28.1329 19.0837C28.1329 17.7621 27.0096 16.6388 25.5559 16.6388C24.1682 16.6388 22.9788 17.696 22.9788 19.0837C22.9788 20.4053 24.1021 21.5286 25.5559 21.5286C26.481 21.5286 27.2078 22.1894 27.2078 23.0485C27.2078 23.9075 26.481 24.5683 25.5559 24.5683C24.6307 24.5683 23.9039 23.9075 23.9039 23.0485C23.9039 22.7841 23.7056 22.5859 23.4413 22.5859C23.177 22.5859 22.9788 22.7841 22.9788 23.0485C22.9788 24.4361 24.1682 25.4934 25.5559 25.4934Z" fill="#DFF3F9"/>
<path d="M25.5558 26.2863C25.8201 26.2863 26.0184 26.0881 26.0184 25.8238V16.3745C26.0184 16.1101 25.8201 15.9119 25.5558 15.9119C25.2915 15.9119 25.0933 16.1101 25.0933 16.3745V25.8238C25.0933 26.0881 25.2915 26.2863 25.5558 26.2863Z" fill="#DFF3F9"/>
<path d="M20.2034 23.5771C20.0051 23.5771 19.873 23.4449 19.8069 23.3128C19.5426 22.5859 19.4104 21.859 19.4104 21.1322C19.4104 19.0837 20.4677 17.1674 22.1857 15.978C22.384 15.8458 22.6483 15.9119 22.8465 16.1101C22.9787 16.3084 22.9126 16.5727 22.7144 16.7709C21.2606 17.7621 20.3355 19.4141 20.3355 21.1322C20.3355 21.7929 20.4677 22.3877 20.6659 22.9824C20.732 23.2467 20.6659 23.511 20.4016 23.5771C20.3355 23.5771 20.2694 23.5771 20.2034 23.5771Z" fill="#DFF3F9"/>
<path d="M28.6615 26.2863C28.5294 26.2863 28.3972 26.2203 28.265 26.0881C28.1329 25.8899 28.199 25.6256 28.3972 25.4273C29.8509 24.4361 30.7761 22.7841 30.7761 21.0661C30.7761 19.2819 29.917 17.696 28.3972 16.7048C28.199 16.5727 28.1329 16.3084 28.265 16.0441C28.3972 15.8458 28.6615 15.7797 28.9258 15.9119C30.6439 17.0352 31.7012 18.9515 31.7012 21.0661C31.7012 23.1145 30.6439 25.0308 28.9258 26.2203C28.8598 26.2863 28.7937 26.2863 28.6615 26.2863Z" fill="#DFF3F9"/>
<path d="M23.1769 34.0837H9.96109C9.69677 34.0837 9.49854 33.8855 9.49854 33.6211V26.6828C9.49854 26.4846 9.56461 26.3524 9.76285 26.2863L11.4809 25.4273C13.6615 24.304 16.1725 23.9736 18.5514 24.37L23.243 25.0969C24.2342 25.2951 24.8289 26.022 24.895 27.1454V27.3436C24.895 27.5418 24.895 27.674 24.895 27.674C24.895 27.674 24.895 27.7401 24.895 27.8062L24.9611 28.1366C25.1593 28.1366 25.3576 28.1366 25.6219 28.1366C28.2651 28.1366 30.6439 26.6828 31.8333 24.37C31.8994 24.2379 32.0316 24.1718 32.1637 24.1057C32.0977 23.9736 32.0977 23.8414 32.1637 23.6432C32.2959 23.4449 32.5602 23.3128 32.7584 23.4449C32.8245 23.4449 32.8906 23.511 32.9567 23.511C33.4192 23.7092 34.2122 24.1057 34.2122 25.0308C34.2122 25.9559 33.6175 26.881 33.221 27.2775C32.8906 27.6079 32.6263 27.9383 32.2959 28.2026C32.2298 28.2687 32.0977 28.4009 32.0316 28.4669C31.7012 28.7313 31.4369 28.9956 31.1065 29.1938L25.6219 33.1586C24.8289 33.8194 24.036 34.0837 23.1769 34.0837ZM10.3576 33.1586H23.1769C23.8377 33.1586 24.4985 32.9603 25.0272 32.5639L30.5118 28.5991C30.7761 28.4009 31.0404 28.2026 31.3047 27.9383C31.3708 27.8722 31.5029 27.7401 31.569 27.674C31.8994 27.4097 32.1637 27.1454 32.4281 26.815C32.8906 26.2203 33.1549 25.6255 33.1549 25.163C33.1549 24.8987 32.8906 24.7004 32.5602 24.5022C32.5602 24.5683 32.5602 24.7004 32.4941 24.7665C31.1065 27.3436 28.3972 28.9956 25.4897 28.9956C25.1593 28.9956 24.7629 28.9956 24.4325 28.9295C24.2342 28.9295 24.1021 28.7973 24.036 28.5991L23.9038 28.0044C23.8377 27.8062 23.8377 27.674 23.8377 27.4758C23.8377 27.4758 23.8377 27.4097 23.8377 27.2775V27.1454C23.8377 26.1542 23.1769 26.022 22.9787 25.9559L18.2871 25.2291C16.0404 24.8987 13.7937 25.2291 11.7452 26.2203L10.2915 26.9471V33.1586H10.3576Z" fill="#DFF3F9"/>
<path d="M25.5558 29.0617C25.3576 29.0617 25.2254 29.0617 25.0272 29.0617H24.9611C24.7628 29.0617 24.6307 29.0617 24.4324 28.9956C24.2342 28.9956 24.102 28.7973 24.036 28.6652L23.9038 28.0705C23.8377 27.8722 23.8377 27.6079 23.8377 27.3436V27.2114C23.8377 26.2203 23.1769 26.0881 22.9787 26.022L18.9479 25.3612C18.8157 25.3612 18.6835 25.2291 18.6175 25.163C17.8245 23.7753 17.428 22.1894 17.5602 20.5374C17.8906 16.5727 21.0624 13.4009 25.0272 13.1366C27.2739 13.0044 29.3884 13.7313 30.9743 15.2511C32.5602 16.7709 33.4853 18.8855 33.4853 21.0661C33.4853 22.1233 33.2871 23.1145 32.8906 24.1057L32.5602 24.7665C32.4941 24.9647 32.362 25.0969 32.2959 25.2291C32.2298 25.3612 32.0976 25.4934 32.0316 25.6255L31.9655 25.6916C31.7672 25.9559 31.569 26.2203 31.3047 26.4846C31.1725 26.6167 31.1065 26.7489 30.9743 26.815L30.6439 26.4846L30.9743 26.815C30.8421 26.9471 30.71 27.0132 30.5778 27.1454C30.4457 27.2775 30.3135 27.3436 30.1813 27.4097L30.1153 27.4758C29.9831 27.5418 29.8509 27.674 29.7188 27.7401C29.5866 27.8062 29.4545 27.9383 29.2562 28.0044H29.1902C29.1902 28.0044 29.1902 28.0044 29.1241 28.0044C28.9919 28.0705 28.8598 28.1366 28.7937 28.2026L28.7276 28.2687C28.5954 28.3348 28.3972 28.4009 28.265 28.467C28.265 28.467 28.265 28.467 28.199 28.467C28.0668 28.533 27.9346 28.533 27.8025 28.5991L27.6703 28.7973C27.5382 28.7973 27.4721 28.8634 27.3399 28.8634H27.2078C27.0756 28.9295 26.8774 28.9295 26.7452 28.9295H26.6131C26.4809 28.9295 26.3487 28.9295 26.2166 28.9956H26.0844C25.8862 29.0617 25.688 29.0617 25.5558 29.0617ZM24.9611 28.1366C25.0272 28.1366 25.0272 28.1366 25.0932 28.1366V28.5991V28.1366C25.4236 28.1366 25.688 28.1366 26.0183 28.1366H26.0844C26.2166 28.1366 26.3487 28.1366 26.4809 28.0705H26.6131C26.7452 28.0705 26.8774 28.0044 27.0095 28.0044H27.1417C27.2078 28.0044 27.3399 27.9383 27.406 27.9383L27.5382 27.8722C27.6703 27.8062 27.8025 27.8062 27.9347 27.7401C28.1329 27.674 28.265 27.6079 28.3972 27.5418H28.4633C28.5954 27.4758 28.7276 27.4097 28.7937 27.3436L28.8598 27.2775C28.9919 27.2114 29.1241 27.1454 29.2562 27.0793C29.3884 27.0132 29.5206 26.9471 29.5866 26.815L29.6527 26.7489C29.7849 26.6828 29.8509 26.6167 29.9831 26.4846C30.1153 26.3524 30.2474 26.2863 30.3135 26.1542L30.6439 26.4846L30.3135 26.1542C30.3796 26.0881 30.5117 25.9559 30.5778 25.8899L30.9743 26.1542L30.6439 25.8238C30.8421 25.6255 31.0404 25.3612 31.2386 25.163V25.0969C31.3047 24.9647 31.3708 24.8326 31.5029 24.7665C31.569 24.6344 31.7012 24.5022 31.7672 24.37L32.0316 23.7092C32.362 22.8502 32.5602 21.9251 32.5602 21C32.5602 19.0176 31.7672 17.2335 30.3135 15.8458C28.8598 14.5242 27.0095 13.7973 25.0272 13.9295C21.525 14.1277 18.6835 16.9692 18.4192 20.4053C18.2871 21.7929 18.6175 23.1145 19.2783 24.304L23.1109 24.8987C24.1021 25.0969 24.6968 25.8238 24.7628 26.9471V27.1454V27.2114C24.7628 27.3436 24.7628 27.5418 24.8289 27.674L24.9611 28.1366Z" fill="#DFF3F9"/>
<path d="M24.5645 28.9956H19.6086C19.3442 28.9956 19.146 28.7974 19.146 28.533C19.146 28.2687 19.3442 28.0705 19.6086 28.0705H24.5645C24.8288 28.0705 25.0271 28.2687 25.0271 28.533C25.0271 28.7974 24.8288 28.9956 24.5645 28.9956Z" fill="#DFF3F9"/>
<path d="M8.04473 34.1498H6.98746C6.72314 34.1498 6.5249 33.9515 6.5249 33.6872C6.5249 33.4229 6.72314 33.2247 6.98746 33.2247H8.04473C8.30904 33.2247 8.50728 33.4229 8.50728 33.6872C8.50728 33.9515 8.30904 34.1498 8.04473 34.1498Z" fill="#DFF3F9"/>
<path d="M8.04473 31.6388H6.98746C6.72314 31.6388 6.5249 31.4405 6.5249 31.1762C6.5249 30.9119 6.72314 30.7137 6.98746 30.7137H8.04473C8.30904 30.7137 8.50728 30.9119 8.50728 31.1762C8.50728 31.4405 8.30904 31.6388 8.04473 31.6388Z" fill="#DFF3F9"/>
<path d="M8.04473 29.1938H6.98746C6.72314 29.1938 6.5249 28.9956 6.5249 28.7313C6.5249 28.467 6.72314 28.2687 6.98746 28.2687H8.04473C8.30904 28.2687 8.50728 28.467 8.50728 28.7313C8.50728 28.9956 8.30904 29.1938 8.04473 29.1938Z" fill="#DFF3F9"/>
<path d="M8.04473 26.7489H6.98746C6.72314 26.7489 6.5249 26.5507 6.5249 26.2863C6.5249 26.022 6.72314 25.8238 6.98746 25.8238H8.04473C8.30904 25.8238 8.50728 26.022 8.50728 26.2863C8.50728 26.5507 8.30904 26.7489 8.04473 26.7489Z" fill="#DFF3F9"/>
<path d="M18.0227 32.2335H11.8774C11.613 32.2335 11.4148 32.0353 11.4148 31.7709C11.4148 31.5066 11.613 31.3084 11.8774 31.3084H18.0227C18.287 31.3084 18.4853 31.5066 18.4853 31.7709C18.4853 32.0353 18.287 32.2335 18.0227 32.2335Z" fill="#DFF3F9"/>
<path d="M25.5558 11.2863C25.2915 11.2863 25.0933 11.0881 25.0933 10.8238V6.46256C25.0933 6.19824 25.2915 6 25.5558 6C25.8201 6 26.0184 6.19824 26.0184 6.46256V10.8899C26.0184 11.0881 25.8201 11.2863 25.5558 11.2863Z" fill="#DFF3F9"/>
<path d="M29.5866 12.5418C29.3223 12.5418 29.124 12.3436 29.124 12.0793V7.65198C29.124 7.38766 29.3223 7.18942 29.5866 7.18942C29.8509 7.18942 30.0491 7.38766 30.0491 7.65198V12.0793C30.0491 12.3436 29.8509 12.5418 29.5866 12.5418Z" fill="#DFF3F9"/>
<path d="M21.5248 12.5418C21.2605 12.5418 21.0623 12.3436 21.0623 12.0793V7.65198C21.0623 7.38766 21.2605 7.18942 21.5248 7.18942C21.7891 7.18942 21.9874 7.38766 21.9874 7.65198V12.0793C21.9874 12.3436 21.723 12.5418 21.5248 12.5418Z" fill="#DFF3F9"/>
</g>
<defs>
<clipPath id="clip0_295_459">
<rect width="27.6211" height="30" fill="white" transform="translate(6.5249 6)"/>
</clipPath>
</defs>
</svg>
