<svg width="41" height="41" viewBox="0 0 41 41" fill="none" xmlns="http://www.w3.org/2000/svg">
<g clip-path="url(#clip0_294_455)">
<path d="M28.3143 31.7789C27.1083 31.7789 26.1284 30.799 26.1284 29.593C26.1284 29.2915 26.3545 29.0653 26.6561 29.0653C26.9576 29.0653 27.1837 29.2915 27.1837 29.593C27.1837 30.196 27.7113 30.7236 28.3143 30.7236C28.9174 30.7236 29.445 30.196 29.445 29.593C29.445 28.99 28.9174 28.4623 28.3143 28.4623C27.1083 28.4623 26.1284 27.4824 26.1284 26.2764C26.1284 25.0704 27.1083 24.0905 28.3143 24.0905C29.5204 24.0905 30.5003 25.0704 30.5003 26.2764C30.5003 26.5779 30.2741 26.804 29.9726 26.804C29.6711 26.804 29.445 26.5779 29.445 26.2764C29.445 25.6734 28.9174 25.1457 28.3143 25.1457C27.7113 25.1457 27.1837 25.6734 27.1837 26.2764C27.1837 26.8794 27.7113 27.407 28.3143 27.407C29.5204 27.407 30.5003 28.3869 30.5003 29.593C30.5003 30.799 29.5204 31.7789 28.3143 31.7789Z" fill="#DFF3F9"/>
<path d="M28.3145 34.0402C24.9226 34.0402 22.209 31.2512 22.209 27.9347C22.209 24.5427 24.9979 21.8291 28.3145 21.8291C31.7065 21.8291 34.42 24.6181 34.42 27.9347C34.4954 31.2512 31.7065 34.0402 28.3145 34.0402ZM28.3145 22.809C25.5256 22.809 23.1889 25.0703 23.1889 27.9347C23.1889 30.7236 25.4502 33.0603 28.3145 33.0603C31.1035 33.0603 33.4401 30.799 33.4401 27.9347C33.4401 25.0703 31.1035 22.809 28.3145 22.809Z" fill="#DFF3F9"/>
<path d="M34.9475 34.0402H9.84697C9.54547 34.0402 9.31934 33.8141 9.31934 33.5126V28.9899C9.31934 28.6884 9.54547 28.4623 9.84697 28.4623H20.4751C20.7766 28.4623 21.0028 28.6884 21.0028 28.9899C21.0028 29.2915 20.7766 29.5176 20.4751 29.5176H10.3746V32.9849H34.9475C35.249 32.9849 35.4751 33.2111 35.4751 33.5126C35.4751 33.8141 35.249 34.0402 34.9475 34.0402Z" fill="#DFF3F9"/>
<path d="M20.4753 29.593H11.2039C10.9024 29.593 10.6763 29.3668 10.6763 29.0653V24.5427C10.6763 24.2412 10.9024 24.0151 11.2039 24.0151H21.229C21.5305 24.0151 21.7567 24.2412 21.7567 24.5427C21.7567 24.8442 21.5305 25.0704 21.229 25.0704H11.6562V28.5377H20.4753C20.7768 28.5377 21.0029 28.7638 21.0029 29.0653C21.0029 29.3668 20.7768 29.593 20.4753 29.593Z" fill="#DFF3F9"/>
<path d="M21.2287 25.0704H8.11309C7.81158 25.0704 7.58545 24.8442 7.58545 24.5427V20.0201C7.58545 19.7186 7.81158 19.4925 8.11309 19.4925H25.2236C25.5251 19.4925 25.7513 19.7186 25.7513 20.0201V21.4523C25.7513 21.7538 25.5251 21.9799 25.2236 21.9799C24.9221 21.9799 24.696 21.7538 24.696 21.4523V20.4724H8.64073V23.9397H21.2287C21.5302 23.9397 21.7563 24.1658 21.7563 24.4673C21.7563 24.8442 21.4548 25.0704 21.2287 25.0704Z" fill="#DFF3F9"/>
<path d="M26.9575 20.5477H9.84697C9.54547 20.5477 9.31934 20.3216 9.31934 20.0201V15.4975C9.31934 15.196 9.54547 14.9698 9.84697 14.9698H26.9575C27.259 14.9698 27.4852 15.196 27.4852 15.4975V20.0201C27.4852 20.3216 27.259 20.5477 26.9575 20.5477ZM10.3746 19.4925H26.5053V16.0251H10.3746V19.4925Z" fill="#DFF3F9"/>
<path d="M12.8621 17.7588C12.5606 17.7588 12.3345 17.5327 12.3345 17.2312V15.5729C12.3345 15.2714 12.5606 15.0452 12.8621 15.0452C13.1636 15.0452 13.3897 15.2714 13.3897 15.5729V17.2312C13.3897 17.5327 13.1636 17.7588 12.8621 17.7588Z" fill="#DFF3F9"/>
<path d="M15.4246 20.5477C15.1231 20.5477 14.897 20.3216 14.897 20.0201V15.4975C14.897 15.196 15.1231 14.9698 15.4246 14.9698C15.7261 14.9698 15.9522 15.196 15.9522 15.4975V20.0201C15.9522 20.3216 15.7261 20.5477 15.4246 20.5477Z" fill="#DFF3F9"/>
<path d="M12.8621 25.0704C12.5606 25.0704 12.3345 24.8442 12.3345 24.5427V20.0201C12.3345 19.7186 12.5606 19.4925 12.8621 19.4925C13.1636 19.4925 13.3897 19.7186 13.3897 20.0201V24.5427C13.3897 24.8442 13.1636 25.0704 12.8621 25.0704Z" fill="#DFF3F9"/>
<path d="M24.7717 16.0251H7.58574C7.28424 16.0251 7.05811 15.799 7.05811 15.4975V10.9749C7.13348 10.7487 7.35961 10.5226 7.58574 10.5226H24.6963C24.9978 10.5226 25.2239 10.7487 25.2239 11.0503V15.5729C25.2993 15.799 25.0732 16.0251 24.7717 16.0251ZM8.11338 15.0452H24.244V11.5779H8.11338V15.0452Z" fill="#DFF3F9"/>
<path d="M21.681 13.2362C21.3795 13.2362 21.1533 13.0101 21.1533 12.7085V11.0503C21.1533 10.7487 21.3795 10.5226 21.681 10.5226C21.9825 10.5226 22.2086 10.7487 22.2086 11.0503V12.7085C22.2086 13.0101 21.9825 13.2362 21.681 13.2362Z" fill="#DFF3F9"/>
<path d="M19.1937 16.0251C18.8921 16.0251 18.666 15.799 18.666 15.4975V10.9749C18.666 10.6734 18.8921 10.4472 19.1937 10.4472C19.4952 10.4472 19.7213 10.6734 19.7213 10.9749V15.4975C19.7213 15.799 19.4952 16.0251 19.1937 16.0251Z" fill="#DFF3F9"/>
<path d="M27.3345 11.5779H10.1486C9.92242 11.5779 9.69629 11.2764 9.69629 11.0503V6.52764C9.69629 6.22613 9.92242 6 10.1486 6H27.3345C27.636 6 27.8621 6.22613 27.8621 6.52764V11.0503C27.8621 11.2764 27.636 11.5779 27.3345 11.5779ZM10.6762 10.5226H26.8068V7.05528H10.6762V10.5226Z" fill="#DFF3F9"/>
<path d="M13.2391 8.71357C12.9376 8.71357 12.7114 8.48744 12.7114 8.18593V6.52764C12.7114 6.22613 12.9376 6 13.2391 6C13.5406 6 13.7667 6.22613 13.7667 6.52764V8.18593C13.7667 8.48744 13.5406 8.71357 13.2391 8.71357Z" fill="#DFF3F9"/>
<path d="M15.7264 11.5779C15.4249 11.5779 15.1987 11.3518 15.1987 11.0503V6.52764C15.1987 6.22613 15.4249 6 15.7264 6C16.0279 6 16.254 6.22613 16.254 6.52764V11.0503C16.254 11.2764 16.0279 11.5779 15.7264 11.5779Z" fill="#DFF3F9"/>
<path d="M19.1937 22.5829C18.8921 22.5829 18.666 22.3568 18.666 22.0553V20.0201C18.666 19.7186 18.8921 19.4925 19.1937 19.4925C19.4952 19.4925 19.7213 19.7186 19.7213 20.0201V22.0553C19.7213 22.3568 19.4952 22.5829 19.1937 22.5829Z" fill="#DFF3F9"/>
<path d="M14.0682 27.1055C13.7667 27.1055 13.5405 26.8794 13.5405 26.5779V24.5427C13.5405 24.2412 13.7667 24.0151 14.0682 24.0151C14.3697 24.0151 14.5958 24.2412 14.5958 24.5427V26.5779C14.5958 26.8794 14.3697 27.1055 14.0682 27.1055Z" fill="#DFF3F9"/>
<path d="M16.6307 31.8543C16.3292 31.8543 16.103 31.6281 16.103 31.3266V29.0653C16.103 28.7638 16.3292 28.5377 16.6307 28.5377C16.9322 28.5377 17.1583 28.7638 17.1583 29.0653V31.3266C17.1583 31.5528 16.9322 31.8543 16.6307 31.8543Z" fill="#DFF3F9"/>
<path d="M19.3445 34.0402C19.043 34.0402 18.8169 33.8141 18.8169 33.5126V28.9899C18.8169 28.6884 19.043 28.4623 19.3445 28.4623C19.646 28.4623 19.8722 28.6884 19.8722 28.9899V33.5126C19.8722 33.8141 19.646 34.0402 19.3445 34.0402Z" fill="#DFF3F9"/>
<path d="M22.7364 34.0402H6.00274C5.70123 34.0402 5.4751 33.8141 5.4751 33.5126C5.4751 33.2111 5.70123 32.9849 6.00274 32.9849H22.7364C23.0379 32.9849 23.264 33.2111 23.264 33.5126C23.264 33.8141 22.9625 34.0402 22.7364 34.0402Z" fill="#DFF3F9"/>
</g>
<defs>
<clipPath id="clip0_294_455">
<rect width="30" height="28.0402" fill="white" transform="translate(5.4751 6)"/>
</clipPath>
</defs>
</svg>
