<svg width="41" height="41" viewBox="0 0 41 41" fill="none" xmlns="http://www.w3.org/2000/svg">
<g clip-path="url(#clip0_295_384)">
<path d="M8.00574 35.5C7.8196 35.5 7.64546 35.3783 7.57941 35.1898C7.50135 34.9525 7.62145 34.691 7.85562 34.6119L15.3073 32.0085C16.232 31.6861 16.8865 30.8406 16.9706 29.8491L17.1327 27.9696C17.1567 27.7202 17.3729 27.5316 17.619 27.5559C17.8652 27.5803 18.0514 27.7993 18.0274 28.0486L17.8652 29.9282C17.7511 31.2725 16.8565 32.4282 15.5955 32.8722L8.15585 35.4757C8.10782 35.4939 8.05978 35.5 8.00574 35.5Z" fill="#DFF3F9"/>
<path d="M33.9337 35.5C33.8856 35.5 33.8376 35.4939 33.7896 35.4757L26.3319 32.8722C25.0709 32.4343 24.1823 31.2786 24.0622 29.9282L23.9 28.0486C23.876 27.7993 24.0622 27.5742 24.3083 27.5559C24.5545 27.5316 24.7767 27.7202 24.7947 27.9696L24.9568 29.8491C25.0409 30.8345 25.6954 31.6861 26.6201 32.0085L34.0718 34.6119C34.3059 34.691 34.432 34.9525 34.348 35.1898C34.2939 35.3783 34.1198 35.5 33.9337 35.5Z" fill="#DFF3F9"/>
<path d="M15.5953 14.2105C15.5052 14.2105 15.4212 14.1861 15.3431 14.1314C15.1389 13.9915 15.0849 13.7056 15.223 13.4988C16.0276 12.3066 17.1625 11.4124 18.4955 10.9197C18.7297 10.8345 18.9879 10.9562 19.0719 11.1934C19.156 11.4307 19.0359 11.6922 18.8017 11.7774C17.6609 12.1971 16.6521 12.9939 15.9676 14.0158C15.8835 14.1435 15.7394 14.2105 15.5953 14.2105Z" fill="#DFF3F9"/>
<path d="M15.1153 23.1703C14.8931 23.1703 14.695 23 14.6709 22.7688L14.0765 17.9817C14.0765 17.9757 14.0765 17.9696 14.0765 17.9635C14.0465 17.635 14.0405 17.3066 14.0585 16.9842C14.0705 16.7348 14.2866 16.5401 14.5328 16.5523C14.779 16.5645 14.9712 16.7774 14.9592 17.0328C14.9471 17.3126 14.9471 17.5924 14.9712 17.8722L15.5656 22.6472C15.5956 22.8966 15.4215 23.1277 15.1753 23.1581C15.1573 23.1703 15.1393 23.1703 15.1153 23.1703Z" fill="#DFF3F9"/>
<path d="M19.8286 29.5328C19.7565 29.5328 19.6785 29.5146 19.6064 29.472L16.7603 27.8601C16.0517 27.4586 15.4993 26.8139 15.2051 26.0474C15.115 25.8102 15.2291 25.5487 15.4633 25.4574C15.6975 25.3662 15.9557 25.4817 16.0457 25.719C16.2619 26.2907 16.6762 26.7652 17.2046 27.0633L20.0508 28.6752C20.2669 28.7968 20.345 29.0766 20.2249 29.2956C20.1408 29.4477 19.9847 29.5328 19.8286 29.5328Z" fill="#DFF3F9"/>
<path d="M22.0203 29.7214C21.8402 29.7214 21.672 29.6119 21.6 29.4355C21.5099 29.2044 21.618 28.9367 21.8522 28.8394C21.9302 28.809 22.0083 28.7664 22.0863 28.7238L25.0226 27.0632C25.7731 26.6375 26.2715 25.865 26.3436 24.989C26.3436 24.983 26.3436 24.9769 26.3436 24.9708L27.2443 17.8783C27.3824 16.2907 26.896 14.7457 25.8872 13.5292C24.8785 12.3187 23.4674 11.5706 21.9182 11.4367C21.672 11.4124 21.4859 11.1934 21.5099 10.944C21.5339 10.6946 21.7501 10.5061 21.9963 10.5304C23.7856 10.6886 25.4129 11.5462 26.5778 12.9452C27.7486 14.3504 28.3071 16.1387 28.1449 17.9696C28.1449 17.9757 28.1449 17.9817 28.1449 17.9878L27.2443 25.0803C27.1362 26.2482 26.4757 27.2883 25.4669 27.8601L22.5307 29.5207C22.4226 29.5815 22.3085 29.6362 22.1944 29.6849C22.1344 29.7092 22.0803 29.7214 22.0203 29.7214Z" fill="#DFF3F9"/>
<path d="M20.9337 28.9307C20.6876 28.9307 20.4834 28.7239 20.4834 28.4745V22.5742C20.4834 22.3248 20.6876 22.118 20.9337 22.118C21.1799 22.118 21.3841 22.3248 21.3841 22.5742V28.4745C21.3841 28.7299 21.1859 28.9307 20.9337 28.9307Z" fill="#DFF3F9"/>
<path d="M20.9337 19.4538C20.6876 19.4538 20.4834 19.247 20.4834 18.9976V11.8686C20.4834 11.6192 20.6876 11.4124 20.9337 11.4124C21.1799 11.4124 21.3841 11.6192 21.3841 11.8686V18.9976C21.3841 19.247 21.1859 19.4538 20.9337 19.4538Z" fill="#DFF3F9"/>
<path d="M20.9035 30.8163C20.1409 30.8163 19.5225 30.1898 19.5225 29.4173C19.5225 28.6448 20.1409 28.0182 20.9035 28.0182C21.6661 28.0182 22.2846 28.6448 22.2846 29.4173C22.2846 30.1898 21.6661 30.8163 20.9035 30.8163ZM20.9035 28.9307C20.6393 28.9307 20.4231 29.1496 20.4231 29.4173C20.4231 29.6849 20.6393 29.9039 20.9035 29.9039C21.1677 29.9039 21.3839 29.6849 21.3839 29.4173C21.3839 29.1496 21.1677 28.9307 20.9035 28.9307Z" fill="#DFF3F9"/>
<path d="M20.9035 12.3248C20.1409 12.3248 19.5225 11.6983 19.5225 10.9258C19.5225 10.1533 20.1409 9.52676 20.9035 9.52676C21.6661 9.52676 22.2846 10.1533 22.2846 10.9258C22.2846 11.6983 21.6661 12.3248 20.9035 12.3248ZM20.9035 10.4392C20.6393 10.4392 20.4231 10.6582 20.4231 10.9258C20.4231 11.1934 20.6393 11.4124 20.9035 11.4124C21.1677 11.4124 21.3839 11.1934 21.3839 10.9258C21.3839 10.6582 21.1677 10.4392 20.9035 10.4392Z" fill="#DFF3F9"/>
<path d="M20.9035 21.5706C20.1409 21.5706 19.5225 20.9441 19.5225 20.1715C19.5225 19.399 20.1409 18.7725 20.9035 18.7725C21.6661 18.7725 22.2846 19.399 22.2846 20.1715C22.2846 20.9441 21.6661 21.5706 20.9035 21.5706ZM20.9035 19.6849C20.6393 19.6849 20.4231 19.9039 20.4231 20.1715C20.4231 20.4392 20.6393 20.6582 20.9035 20.6582C21.1677 20.6582 21.3839 20.4392 21.3839 20.1715C21.3839 19.9039 21.1677 19.6849 20.9035 19.6849Z" fill="#DFF3F9"/>
<path d="M15.0192 16.0961C14.2567 16.0961 13.6382 15.4696 13.6382 14.6971C13.6382 13.9246 14.2567 13.2981 15.0192 13.2981C15.7818 13.2981 16.4003 13.9246 16.4003 14.6971C16.4003 15.4696 15.7818 16.0961 15.0192 16.0961ZM15.0192 14.2105C14.755 14.2105 14.5389 14.4295 14.5389 14.6971C14.5389 14.9647 14.755 15.1837 15.0192 15.1837C15.2834 15.1837 15.4996 14.9647 15.4996 14.6971C15.4996 14.4295 15.2834 14.2105 15.0192 14.2105Z" fill="#DFF3F9"/>
<path d="M15.2595 25.0985C14.4969 25.0985 13.8784 24.472 13.8784 23.6995C13.8784 22.927 14.4969 22.3005 15.2595 22.3005C16.022 22.3005 16.6405 22.927 16.6405 23.6995C16.6405 24.472 16.022 25.0985 15.2595 25.0985ZM15.2595 23.2129C14.9953 23.2129 14.7791 23.4319 14.7791 23.6995C14.7791 23.9671 14.9953 24.1861 15.2595 24.1861C15.5237 24.1861 15.7398 23.9671 15.7398 23.6995C15.7398 23.4319 15.5237 23.2129 15.2595 23.2129Z" fill="#DFF3F9"/>
<path d="M20.2009 20.0134C20.0928 20.0134 19.9787 19.9708 19.8946 19.8917L15.4633 15.7311C15.2831 15.5608 15.2711 15.2689 15.4393 15.0864C15.6074 14.9039 15.8956 14.8917 16.0757 15.062L20.5071 19.2226C20.6872 19.3929 20.6992 19.6849 20.5311 19.8674C20.4411 19.9647 20.321 20.0134 20.2009 20.0134Z" fill="#DFF3F9"/>
<path d="M16.1899 23.6752C16.0398 23.6752 15.8957 23.6022 15.8116 23.4623C15.6795 23.2494 15.7396 22.9696 15.9497 22.8297L19.8767 20.281C20.0869 20.1472 20.3631 20.208 20.5012 20.4209C20.6333 20.6338 20.5732 20.9136 20.3631 21.0535L16.4361 23.6022C16.358 23.6508 16.274 23.6752 16.1899 23.6752Z" fill="#DFF3F9"/>
<path d="M28.2833 30.8163C28.1392 30.8163 27.9951 30.7494 27.911 30.6156C27.7729 30.4088 27.8269 30.1229 28.0311 29.983C29.1179 29.2348 30.0786 28.3224 30.8893 27.2762C31.0454 27.0754 31.3276 27.045 31.5197 27.1971C31.7179 27.3552 31.7479 27.6411 31.5978 27.8358C30.7271 28.955 29.7004 29.9282 28.5355 30.7311C28.4634 30.792 28.3733 30.8163 28.2833 30.8163Z" fill="#DFF3F9"/>
<path d="M33.2252 24.4599C33.1712 24.4599 33.1171 24.4477 33.0691 24.4294C32.8349 24.3382 32.7208 24.0766 32.8049 23.8394C33.3393 22.3917 33.6095 20.8711 33.6095 19.3078C33.6095 17.8236 33.3633 16.3698 32.8769 14.983C32.7929 14.7457 32.919 14.4842 33.1532 14.399C33.3873 14.3139 33.6455 14.4416 33.7296 14.6788C34.252 16.163 34.5162 17.7202 34.5162 19.3078C34.5162 20.9745 34.228 22.6107 33.6515 24.1557C33.5795 24.3443 33.4053 24.4599 33.2252 24.4599Z" fill="#DFF3F9"/>
<path d="M10.7081 11.2603C10.606 11.2603 10.5039 11.2238 10.4198 11.1569C10.2277 10.9988 10.2037 10.7068 10.3598 10.5122C12.9658 7.32482 16.7967 5.5 20.8738 5.5C22.7953 5.5 24.6567 5.89538 26.404 6.68005C28.0913 7.44039 29.5864 8.51703 30.8474 9.88564C31.0155 10.0681 31.0095 10.3601 30.8234 10.5304C30.6432 10.7007 30.355 10.6946 30.1869 10.5061C29.004 9.22263 27.6109 8.21898 26.0377 7.5073C24.4105 6.77737 22.6692 6.40024 20.8738 6.40024C17.0669 6.40024 13.4882 8.10949 11.0563 11.0839C10.9663 11.2056 10.8402 11.2603 10.7081 11.2603Z" fill="#DFF3F9"/>
<path d="M8.16201 23.3285C7.96386 23.3285 7.78372 23.1946 7.72968 22.9939C7.39943 21.8017 7.2373 20.5608 7.2373 19.3139C7.2373 17.6229 7.53753 15.9684 8.12598 14.399C8.21605 14.1618 8.47424 14.0462 8.70842 14.1375C8.9426 14.2287 9.05669 14.4903 8.96662 14.7275C8.4202 16.1873 8.13799 17.7324 8.13799 19.3139C8.13799 20.4817 8.29411 21.6375 8.59434 22.7506C8.66039 22.9939 8.52228 23.2433 8.2821 23.3102C8.24007 23.3224 8.19803 23.3285 8.16201 23.3285Z" fill="#DFF3F9"/>
<path d="M13.458 30.8163C13.3679 30.8163 13.2839 30.792 13.2058 30.7372C11.1883 29.3443 9.56703 27.4282 8.52824 25.1959C8.42016 24.9708 8.51623 24.6971 8.74441 24.5876C8.96657 24.4781 9.23678 24.5754 9.34486 24.8066C10.3176 26.8929 11.8247 28.6813 13.7102 29.983C13.9143 30.1229 13.9684 30.4088 13.8303 30.6156C13.7462 30.7494 13.6021 30.8163 13.458 30.8163Z" fill="#DFF3F9"/>
<path d="M10.0353 13.1156C9.27277 13.1156 8.6543 12.489 8.6543 11.7165C8.6543 10.944 9.27277 10.3175 10.0353 10.3175C10.7979 10.3175 11.4164 10.944 11.4164 11.7165C11.4164 12.489 10.7979 13.1156 10.0353 13.1156ZM10.0353 11.2299C9.77115 11.2299 9.55498 11.4489 9.55498 11.7165C9.55498 11.9842 9.77115 12.2031 10.0353 12.2031C10.2995 12.2031 10.5157 11.9842 10.5157 11.7165C10.5157 11.4489 10.2995 11.2299 10.0353 11.2299Z" fill="#DFF3F9"/>
<path d="M32.7927 26.3759C32.0301 26.3759 31.4116 25.7494 31.4116 24.9769C31.4116 24.2044 32.0301 23.5779 32.7927 23.5779C33.5553 23.5779 34.1737 24.2044 34.1737 24.9769C34.1737 25.7494 33.5553 26.3759 32.7927 26.3759ZM32.7927 24.4903C32.5285 24.4903 32.3123 24.7092 32.3123 24.9769C32.3123 25.2445 32.5285 25.4635 32.7927 25.4635C33.0569 25.4635 33.273 25.2445 33.273 24.9769C33.273 24.7092 33.0569 24.4903 32.7927 24.4903Z" fill="#DFF3F9"/>
</g>
<defs>
<clipPath id="clip0_295_384">
<rect width="27.2727" height="30" fill="white" transform="translate(7.2373 5.5)"/>
</clipPath>
</defs>
</svg>
