<svg width="41" height="41" viewBox="0 0 41 41" fill="none" xmlns="http://www.w3.org/2000/svg">
<g clip-path="url(#clip0_295_434)">
<path d="M33.1357 28.1127H14.5441L11.1638 8.67606H6.93848" stroke="#DFF3F9" stroke-width="1.5" stroke-miterlimit="10" stroke-linecap="round" stroke-linejoin="round"/>
<path d="M12.0088 11.2113H35.6708L33.1355 23.8873H14.544" stroke="#DFF3F9" stroke-width="1.5" stroke-miterlimit="10" stroke-linecap="round" stroke-linejoin="round"/>
<path d="M17.9243 11.2113V23.8873" stroke="#DFF3F9" stroke-width="1.5" stroke-miterlimit="10" stroke-linecap="round" stroke-linejoin="round"/>
<path d="M23.8398 11.2113V23.8873" stroke="#DFF3F9" stroke-width="1.5" stroke-miterlimit="10" stroke-linecap="round" stroke-linejoin="round"/>
<path d="M33.9808 17.1268H12.854" stroke="#DFF3F9" stroke-width="1.5" stroke-miterlimit="10" stroke-linecap="round" stroke-linejoin="round"/>
<path d="M29.7554 11.2113V23.8873" stroke="#DFF3F9" stroke-width="1.5" stroke-miterlimit="10" stroke-linecap="round" stroke-linejoin="round"/>
<path d="M18.2623 32.2535C19.4291 32.2535 20.375 31.3076 20.375 30.1408C20.375 28.974 19.4291 28.0282 18.2623 28.0282C17.0955 28.0282 16.1497 28.974 16.1497 30.1408C16.1497 31.3076 17.0955 32.2535 18.2623 32.2535Z" stroke="#DFF3F9" stroke-width="1.5" stroke-miterlimit="10" stroke-linecap="round" stroke-linejoin="round"/>
<path d="M29.2484 32.2535C30.4152 32.2535 31.3611 31.3076 31.3611 30.1408C31.3611 28.974 30.4152 28.0282 29.2484 28.0282C28.0816 28.0282 27.1357 28.974 27.1357 30.1408C27.1357 31.3076 28.0816 32.2535 29.2484 32.2535Z" stroke="#DFF3F9" stroke-width="1.5" stroke-miterlimit="10" stroke-linecap="round" stroke-linejoin="round"/>
</g>
<defs>
<clipPath id="clip0_295_434">
<rect width="30" height="24.9296" fill="white" transform="translate(6.26245 8)"/>
</clipPath>
</defs>
</svg>
